<svg width="597" height="64" viewBox="0 0 597 64" fill="none" xmlns="http://www.w3.org/2000/svg">
<rect x="324.611" y="1" width="272.389" height="62.3111" rx="6" fill="#FA8166"/>
<path d="M49.3176 30.4622L52.2255 27.1538C53.175 26.046 53.7388 25.3586 53.9168 25.0916C54.3025 24.5179 54.4954 23.9888 54.4954 23.5041C54.4954 23.0591 54.352 22.6981 54.0652 22.4211C53.7882 22.1442 53.442 22.0057 53.0266 22.0057C52.5519 22.0057 52.176 22.1689 51.8991 22.4953C51.6222 22.8118 51.4738 23.1975 51.454 23.6525H49.466C49.5056 22.6535 49.8468 21.8524 50.4897 21.2491C51.1326 20.6457 51.9486 20.3441 52.9376 20.3441C54.0256 20.3441 54.8762 20.6556 55.4894 21.2787C56.1125 21.9019 56.4241 22.6387 56.4241 23.4893C56.4241 23.9641 56.3153 24.4388 56.0977 24.9136C55.8801 25.3883 55.6724 25.7493 55.4746 25.9966C55.2768 26.234 54.9949 26.5505 54.6289 26.9461L52.9228 28.8006H56.4983V30.4622H49.3176ZM64.3963 29.3198C63.6545 30.2298 62.7545 30.6848 61.6962 30.6848C60.6379 30.6848 59.7329 30.2298 58.9812 29.3198C58.2394 28.4 57.8685 27.1291 57.8685 25.507C57.8685 23.8948 58.2394 22.6338 58.9812 21.7238C59.7329 20.804 60.6379 20.3441 61.6962 20.3441C62.7545 20.3441 63.6545 20.804 64.3963 21.7238C65.148 22.6338 65.5239 23.8998 65.5239 25.5218C65.5239 27.134 65.148 28.4 64.3963 29.3198ZM63.0017 22.881C62.616 22.2975 62.1808 22.0057 61.6962 22.0057C61.2115 22.0057 60.7714 22.2975 60.3758 22.881C59.99 23.4547 59.7972 24.33 59.7972 25.507C59.7972 26.684 59.99 27.5643 60.3758 28.1478C60.7615 28.7314 61.2016 29.0231 61.6962 29.0231C62.1907 29.0231 62.6308 28.7314 63.0166 28.1478C63.4023 27.5643 63.5952 26.684 63.5952 25.507C63.5952 24.33 63.3974 23.4547 63.0017 22.881ZM66.9534 30.3287C66.7359 30.1012 66.6271 29.8243 66.6271 29.4979C66.6271 29.1715 66.7359 28.8995 66.9534 28.6819C67.1809 28.4544 67.4579 28.3407 67.7843 28.3407C68.1107 28.3407 68.3826 28.4544 68.6002 28.6819C68.8277 28.8995 68.9415 29.1715 68.9415 29.4979C68.9415 29.8243 68.8277 30.1012 68.6002 30.3287C68.3826 30.5463 68.1107 30.6551 67.7843 30.6551C67.4579 30.6551 67.1809 30.5463 66.9534 30.3287ZM76.5665 29.3198C75.8247 30.2298 74.9246 30.6848 73.8663 30.6848C72.808 30.6848 71.903 30.2298 71.1513 29.3198C70.4095 28.4 70.0386 27.1291 70.0386 25.507C70.0386 23.8948 70.4095 22.6338 71.1513 21.7238C71.903 20.804 72.808 20.3441 73.8663 20.3441C74.9246 20.3441 75.8247 20.804 76.5665 21.7238C77.3182 22.6338 77.694 23.8998 77.694 25.5218C77.694 27.134 77.3182 28.4 76.5665 29.3198ZM75.1719 22.881C74.7862 22.2975 74.351 22.0057 73.8663 22.0057C73.3817 22.0057 72.9415 22.2975 72.5459 22.881C72.1602 23.4547 71.9673 24.33 71.9673 25.507C71.9673 26.684 72.1602 27.5643 72.5459 28.1478C72.9317 28.7314 73.3718 29.0231 73.8663 29.0231C74.3609 29.0231 74.801 28.7314 75.1867 28.1478C75.5725 27.5643 75.7653 26.684 75.7653 25.507C75.7653 24.33 75.5675 23.4547 75.1719 22.881ZM84.9986 29.3198C84.2568 30.2298 83.3568 30.6848 82.2985 30.6848C81.2402 30.6848 80.3352 30.2298 79.5835 29.3198C78.8417 28.4 78.4708 27.1291 78.4708 25.507C78.4708 23.8948 78.8417 22.6338 79.5835 21.7238C80.3352 20.804 81.2402 20.3441 82.2985 20.3441C83.3568 20.3441 84.2568 20.804 84.9986 21.7238C85.7503 22.6338 86.1262 23.8998 86.1262 25.5218C86.1262 27.134 85.7503 28.4 84.9986 29.3198ZM83.6041 22.881C83.2183 22.2975 82.7831 22.0057 82.2985 22.0057C81.8138 22.0057 81.3737 22.2975 80.9781 22.881C80.5924 23.4547 80.3995 24.33 80.3995 25.507C80.3995 26.684 80.5924 27.5643 80.9781 28.1478C81.3638 28.7314 81.804 29.0231 82.2985 29.0231C82.793 29.0231 83.2332 28.7314 83.6189 28.1478C84.0046 27.5643 84.1975 26.684 84.1975 25.507C84.1975 24.33 83.9997 23.4547 83.6041 22.881ZM93.4308 29.3198C92.689 30.2298 91.789 30.6848 90.7307 30.6848C89.6724 30.6848 88.7674 30.2298 88.0157 29.3198C87.2739 28.4 86.903 27.1291 86.903 25.507C86.903 23.8948 87.2739 22.6338 88.0157 21.7238C88.7674 20.804 89.6724 20.3441 90.7307 20.3441C91.789 20.3441 92.689 20.804 93.4308 21.7238C94.1825 22.6338 94.5583 23.8998 94.5583 25.5218C94.5583 27.134 94.1825 28.4 93.4308 29.3198ZM92.0362 22.881C91.6505 22.2975 91.2153 22.0057 90.7307 22.0057C90.246 22.0057 89.8059 22.2975 89.4103 22.881C89.0245 23.4547 88.8317 24.33 88.8317 25.507C88.8317 26.684 89.0245 27.5643 89.4103 28.1478C89.796 28.7314 90.2361 29.0231 90.7307 29.0231C91.2252 29.0231 91.6653 28.7314 92.0511 28.1478C92.4368 27.5643 92.6297 26.684 92.6297 25.507C92.6297 24.33 92.4319 23.4547 92.0362 22.881Z" fill="#272931"/>
<path d="M35.8647 41.7954V42.669C35.6115 42.4158 35.3362 42.2195 35.0387 42.0803C34.6778 41.9157 34.3139 41.8334 33.9467 41.8334C33.2188 41.8334 32.6111 42.0898 32.1237 42.6025C31.6426 43.1089 31.4021 43.7324 31.4021 44.473C31.4021 45.2706 31.6648 45.9004 32.1901 46.3625C32.7219 46.8246 33.3106 47.0557 33.9562 47.0557C34.3613 47.0557 34.7538 46.9576 35.1336 46.7613C35.3995 46.6284 35.6432 46.4512 35.8647 46.2296V47.1031C35.2887 47.5146 34.6525 47.7203 33.9562 47.7203C33.0194 47.7203 32.2376 47.407 31.611 46.7803C30.9906 46.1536 30.6804 45.3814 30.6804 44.4635C30.6804 43.5204 30.9938 42.7354 31.6204 42.1088C32.2534 41.4821 33.0447 41.1688 33.9942 41.1688C34.6905 41.1688 35.314 41.3776 35.8647 41.7954ZM38.8009 47.6064V46.0587C38.4274 46.1157 38.1173 46.1441 37.8704 46.1441C37.44 46.1441 37.1203 46.0492 36.9114 45.8593C36.6899 45.6631 36.5791 45.3402 36.5791 44.8908V43.6659H37.2627V44.7959C37.2627 45.0111 37.2912 45.1662 37.3482 45.2611C37.4368 45.432 37.6362 45.5175 37.9464 45.5175C38.2249 45.5175 38.5097 45.489 38.8009 45.432V43.6659H39.4846V47.6064H38.8009ZM43.7923 44.2262V43.6659H44.476V47.6064H43.7923V47.0557C43.4505 47.4988 43.0011 47.7203 42.444 47.7203C41.9123 47.7203 41.4597 47.5368 41.0862 47.1696C40.7128 46.8025 40.526 46.2897 40.526 45.6314C40.526 44.9858 40.7096 44.4825 41.0768 44.1217C41.4502 43.7546 41.906 43.571 42.444 43.571C43.0137 43.571 43.4632 43.7894 43.7923 44.2262ZM42.52 44.1787C42.1592 44.1787 41.8522 44.3084 41.599 44.568C41.3521 44.8212 41.2287 45.1757 41.2287 45.6314C41.2287 46.0682 41.3426 46.4258 41.5705 46.7044C41.8047 46.9765 42.1212 47.1126 42.52 47.1126C42.9188 47.1126 43.2353 46.9702 43.4695 46.6854C43.71 46.4005 43.8303 46.0524 43.8303 45.6409C43.8303 45.1725 43.6974 44.8117 43.4315 44.5585C43.1657 44.3053 42.8618 44.1787 42.52 44.1787ZM48.8567 43.9508V44.7674C48.5465 44.3749 48.135 44.1787 47.6223 44.1787C47.2362 44.1787 46.907 44.3116 46.6348 44.5775C46.3626 44.837 46.2265 45.1946 46.2265 45.6504C46.2265 46.1062 46.3626 46.4638 46.6348 46.7233C46.907 46.9829 47.233 47.1126 47.6128 47.1126C48.1192 47.1126 48.5433 46.9069 48.8852 46.4955V47.312C48.5117 47.5842 48.0939 47.7203 47.6318 47.7203C47.0178 47.7203 46.5114 47.5273 46.1126 47.1411C45.7201 46.7487 45.5239 46.2549 45.5239 45.6599C45.5239 45.0586 45.7233 44.5616 46.1221 44.1692C46.5209 43.7704 47.0241 43.571 47.6318 43.571C48.0876 43.571 48.4959 43.6976 48.8567 43.9508ZM52.5168 44.2926H51.2824V47.6064H50.5988V44.2926H49.3644V43.6659H52.5168V44.2926ZM56.1239 43.6659V47.6064H55.4402V44.2926H54.0349V46.0682C54.0349 46.5809 53.9337 46.9607 53.7311 47.2076C53.5032 47.4861 53.1867 47.6254 52.7816 47.6254C52.731 47.6254 52.6613 47.619 52.5727 47.6064V46.9797C52.636 46.9924 52.6867 46.9987 52.7246 46.9987C52.9462 46.9987 53.1108 46.9132 53.2184 46.7423C53.307 46.6031 53.3513 46.3784 53.3513 46.0682V43.6659H56.1239ZM57.417 43.6659H58.1007V46.2676L60.7973 43.3621V47.6064H60.1136V44.9763L57.417 47.8817V43.6659ZM62.0904 43.6659H63.5811C63.9419 43.6659 64.2172 43.7419 64.4071 43.8938C64.635 44.0774 64.749 44.3243 64.749 44.6344C64.749 44.9763 64.6065 45.239 64.3217 45.4225C64.5179 45.4732 64.6825 45.5618 64.8154 45.6884C65.0243 45.8909 65.1288 46.1441 65.1288 46.448C65.1288 46.8278 64.9927 47.1253 64.7205 47.3405C64.4863 47.5178 64.1761 47.6064 63.79 47.6064H62.0904V43.6659ZM62.774 45.2706H63.4956C63.6792 45.2706 63.8248 45.2326 63.9324 45.1567C64.059 45.0617 64.1223 44.9256 64.1223 44.7484C64.1223 44.5901 64.059 44.4635 63.9324 44.3686C63.8374 44.3053 63.6539 44.2736 63.3817 44.2736H62.774V45.2706ZM62.774 46.9987H63.6191C63.9102 46.9987 64.116 46.9544 64.2362 46.8658C64.3882 46.7518 64.4641 46.6062 64.4641 46.429C64.4641 46.2391 64.3977 46.0903 64.2647 45.9827C64.1445 45.8878 63.9387 45.8403 63.6475 45.8403H62.774V46.9987ZM66.1703 47.6064V43.6659H66.8539V45.1757H67.5565C68.1009 45.1757 68.4997 45.3054 68.7529 45.565C68.9555 45.7675 69.0567 46.0429 69.0567 46.391C69.0567 46.7582 68.9396 47.0525 68.7054 47.2741C68.4712 47.4956 68.0851 47.6064 67.547 47.6064H66.1703ZM66.8539 46.9987H67.4901C67.7749 46.9987 67.9775 46.9639 68.0977 46.8943C68.2687 46.7803 68.3541 46.6126 68.3541 46.391C68.3541 46.1631 68.2718 45.9986 68.1072 45.8973C67.9933 45.8213 67.7907 45.7833 67.4996 45.7833H66.8539V46.9987ZM69.5315 47.6064V43.6659H70.2151V47.6064H69.5315ZM70.9322 47.6064L72.6129 45.4985L71.1791 43.6659H72.0147L73.0306 45.0047L74.0656 43.6659H74.9012L73.4579 45.508L75.0911 47.6064H74.2555L73.0116 46.0017L71.7678 47.6064H70.9322ZM78.0298 43.6659H78.7134V45.2801L80.3086 43.6659H81.1441L79.435 45.4225L81.353 47.6064H80.4605L78.9223 45.8783L78.7134 46.0777V47.6064H78.0298V43.6659ZM85.1189 43.6659V47.6064H84.4353V44.2926H83.03V46.0682C83.03 46.5809 82.9287 46.9607 82.7262 47.2076C82.4983 47.4861 82.1818 47.6254 81.7767 47.6254C81.726 47.6254 81.6564 47.619 81.5678 47.6064V46.9797C81.6311 46.9924 81.6817 46.9987 81.7197 46.9987C81.9412 46.9987 82.1058 46.9132 82.2134 46.7423C82.3021 46.6031 82.3464 46.3784 82.3464 46.0682V43.6659H85.1189ZM86.4121 43.6659H87.0957V46.2676L89.7923 43.3621V47.6064H89.1087V44.9763L86.4121 47.8817V43.6659ZM94.0099 46.2866L94.5796 46.5999C94.4467 46.8531 94.2853 47.0652 94.0954 47.2361C93.7345 47.5589 93.2978 47.7203 92.785 47.7203C92.2533 47.7203 91.7944 47.5494 91.4083 47.2076C91.0285 46.8594 90.8386 46.3435 90.8386 45.6599C90.8386 45.0586 91.0095 44.5616 91.3513 44.1692C91.6994 43.7704 92.1647 43.571 92.7471 43.571C93.4054 43.571 93.9023 43.8115 94.2378 44.2926C94.5036 44.6724 94.6271 45.1662 94.6081 45.7738H91.5412C91.5475 46.1726 91.671 46.4955 91.9115 46.7423C92.152 46.9892 92.4464 47.1126 92.7945 47.1126C93.1047 47.1126 93.3737 47.0177 93.6016 46.8278C93.7789 46.6759 93.915 46.4955 94.0099 46.2866ZM91.5887 45.2041H93.9055C93.8485 44.894 93.7124 44.6471 93.4972 44.4635C93.2883 44.2736 93.0382 44.1787 92.7471 44.1787C92.4622 44.1787 92.209 44.2768 91.9875 44.473C91.7722 44.6629 91.6393 44.9066 91.5887 45.2041ZM95.6568 47.6064V43.6659H96.3404V45.2801H98.2014V43.6659H98.8851V47.6064H98.2014V45.9068H96.3404V47.6064H95.6568ZM102.755 44.2926H101.521V47.6064H100.837V44.2926H99.6028V43.6659H102.755V44.2926ZM106.714 47.1316C106.321 47.5241 105.824 47.7203 105.223 47.7203C104.621 47.7203 104.121 47.5241 103.723 47.1316C103.33 46.7392 103.134 46.2454 103.134 45.6504C103.134 45.0491 103.33 44.5522 103.723 44.1597C104.121 43.7672 104.621 43.571 105.223 43.571C105.824 43.571 106.321 43.7672 106.714 44.1597C107.112 44.5522 107.312 45.0491 107.312 45.6504C107.312 46.2454 107.112 46.7392 106.714 47.1316ZM106.201 44.568C105.935 44.3084 105.609 44.1787 105.223 44.1787C104.837 44.1787 104.507 44.3116 104.235 44.5775C103.969 44.837 103.837 45.1946 103.837 45.6504C103.837 46.1062 103.973 46.4638 104.245 46.7233C104.517 46.9829 104.843 47.1126 105.223 47.1126C105.603 47.1126 105.929 46.9829 106.201 46.7233C106.473 46.4638 106.609 46.1062 106.609 45.6504C106.609 45.1883 106.473 44.8275 106.201 44.568ZM108.36 43.6659H109.851C110.212 43.6659 110.487 43.7419 110.677 43.8938C110.905 44.0774 111.019 44.3243 111.019 44.6344C111.019 44.9763 110.876 45.239 110.591 45.4225C110.788 45.4732 110.952 45.5618 111.085 45.6884C111.294 45.8909 111.398 46.1441 111.398 46.448C111.398 46.8278 111.262 47.1253 110.99 47.3405C110.756 47.5178 110.446 47.6064 110.06 47.6064H108.36V43.6659ZM109.044 45.2706H109.765C109.949 45.2706 110.095 45.2326 110.202 45.1567C110.329 45.0617 110.392 44.9256 110.392 44.7484C110.392 44.5901 110.329 44.4635 110.202 44.3686C110.107 44.3053 109.924 44.2736 109.651 44.2736H109.044V45.2706ZM109.044 46.9987H109.889C110.18 46.9987 110.386 46.9544 110.506 46.8658C110.658 46.7518 110.734 46.6062 110.734 46.429C110.734 46.2391 110.667 46.0903 110.534 45.9827C110.414 45.8878 110.208 45.8403 109.917 45.8403H109.044V46.9987Z" fill="#BDC1CF"/>
<path d="M346.981 41.7954V42.669C346.728 42.4158 346.452 42.2195 346.155 42.0803C345.794 41.9157 345.43 41.8334 345.063 41.8334C344.335 41.8334 343.727 42.0898 343.24 42.6025C342.759 43.1089 342.518 43.7324 342.518 44.473C342.518 45.2706 342.781 45.9004 343.306 46.3625C343.838 46.8246 344.427 47.0557 345.073 47.0557C345.478 47.0557 345.87 46.9576 346.25 46.7613C346.516 46.6284 346.759 46.4512 346.981 46.2296V47.1031C346.405 47.5146 345.769 47.7203 345.073 47.7203C344.136 47.7203 343.354 47.407 342.727 46.7803C342.107 46.1536 341.797 45.3814 341.797 44.4635C341.797 43.5204 342.11 42.7354 342.737 42.1088C343.37 41.4821 344.161 41.1688 345.11 41.1688C345.807 41.1688 346.43 41.3776 346.981 41.7954ZM351.03 46.2866L351.6 46.5999C351.467 46.8531 351.306 47.0652 351.116 47.2361C350.755 47.5589 350.318 47.7203 349.806 47.7203C349.274 47.7203 348.815 47.5494 348.429 47.2076C348.049 46.8594 347.859 46.3435 347.859 45.6599C347.859 45.0586 348.03 44.5616 348.372 44.1692C348.72 43.7704 349.185 43.571 349.768 43.571C350.426 43.571 350.923 43.8115 351.258 44.2926C351.524 44.6724 351.648 45.1662 351.629 45.7738H348.562C348.568 46.1726 348.692 46.4955 348.932 46.7423C349.173 46.9892 349.467 47.1126 349.815 47.1126C350.125 47.1126 350.394 47.0177 350.622 46.8278C350.799 46.6759 350.936 46.4955 351.03 46.2866ZM348.609 45.2041H350.926C350.869 44.894 350.733 44.6471 350.518 44.4635C350.309 44.2736 350.059 44.1787 349.768 44.1787C349.483 44.1787 349.23 44.2768 349.008 44.473C348.793 44.6629 348.66 44.9066 348.609 45.2041ZM352.677 43.6659H353.361V46.2676L356.058 43.3621V47.6064H355.374V44.9763L352.677 47.8817V43.6659ZM353.019 41.9663L353.589 41.748C353.703 42.1278 353.972 42.3177 354.396 42.3177C354.82 42.3177 355.089 42.1278 355.203 41.748L355.773 41.9663C355.671 42.2512 355.497 42.4759 355.251 42.6405C355.01 42.8051 354.725 42.8874 354.396 42.8874C354.067 42.8874 353.779 42.8051 353.532 42.6405C353.291 42.4759 353.12 42.2512 353.019 41.9663ZM359.459 47.6064V46.0587C359.085 46.1157 358.775 46.1441 358.528 46.1441C358.098 46.1441 357.778 46.0492 357.569 45.8593C357.348 45.6631 357.237 45.3402 357.237 44.8908V43.6659H357.92V44.7959C357.92 45.0111 357.949 45.1662 358.006 45.2611C358.094 45.432 358.294 45.5175 358.604 45.5175C358.883 45.5175 359.167 45.489 359.459 45.432V43.6659H360.142V47.6064H359.459ZM364.45 44.2262V43.6659H365.134V47.6064H364.45V47.0557C364.108 47.4988 363.659 47.7203 363.102 47.7203C362.57 47.7203 362.117 47.5368 361.744 47.1696C361.37 46.8025 361.184 46.2897 361.184 45.6314C361.184 44.9858 361.367 44.4825 361.734 44.1217C362.108 43.7546 362.564 43.571 363.102 43.571C363.671 43.571 364.121 43.7894 364.45 44.2262ZM363.178 44.1787C362.817 44.1787 362.51 44.3084 362.257 44.568C362.01 44.8212 361.886 45.1757 361.886 45.6314C361.886 46.0682 362 46.4258 362.228 46.7044C362.462 46.9765 362.779 47.1126 363.178 47.1126C363.576 47.1126 363.893 46.9702 364.127 46.6854C364.368 46.4005 364.488 46.0524 364.488 45.6409C364.488 45.1725 364.355 44.8117 364.089 44.5585C363.823 44.3053 363.519 44.1787 363.178 44.1787ZM369.514 43.9508V44.7674C369.204 44.3749 368.793 44.1787 368.28 44.1787C367.894 44.1787 367.565 44.3116 367.293 44.5775C367.02 44.837 366.884 45.1946 366.884 45.6504C366.884 46.1062 367.02 46.4638 367.293 46.7233C367.565 46.9829 367.891 47.1126 368.27 47.1126C368.777 47.1126 369.201 46.9069 369.543 46.4955V47.312C369.169 47.5842 368.752 47.7203 368.289 47.7203C367.675 47.7203 367.169 47.5273 366.77 47.1411C366.378 46.7487 366.182 46.2549 366.182 45.6599C366.182 45.0586 366.381 44.5616 366.78 44.1692C367.179 43.7704 367.682 43.571 368.289 43.571C368.745 43.571 369.154 43.6976 369.514 43.9508ZM378.268 46.7803C377.635 47.407 376.856 47.7203 375.932 47.7203C375.008 47.7203 374.226 47.407 373.587 46.7803C372.954 46.1536 372.637 45.3751 372.637 44.4445C372.637 43.5077 372.957 42.7291 373.596 42.1088C374.235 41.4821 375.014 41.1688 375.932 41.1688C376.85 41.1688 377.628 41.4821 378.268 42.1088C378.907 42.7291 379.227 43.5077 379.227 44.4445C379.227 45.3751 378.907 46.1536 378.268 46.7803ZM377.755 42.593C377.255 42.0866 376.647 41.8334 375.932 41.8334C375.217 41.8334 374.609 42.0866 374.109 42.593C373.609 43.0994 373.359 43.7166 373.359 44.4445C373.359 45.1725 373.609 45.7897 374.109 46.2961C374.609 46.8025 375.217 47.0557 375.932 47.0557C376.647 47.0557 377.255 46.8025 377.755 46.2961C378.255 45.7897 378.505 45.1725 378.505 44.4445C378.505 43.7166 378.255 43.0994 377.755 42.593ZM380.346 47.6064V43.6659H381.03V45.2801H382.891V43.6659H383.575V47.6064H382.891V45.9068H381.03V47.6064H380.346ZM387.844 43.6659V47.6064H387.16V44.2926H385.755V46.0682C385.755 46.5809 385.653 46.9607 385.451 47.2076C385.223 47.4861 384.906 47.6254 384.501 47.6254C384.451 47.6254 384.381 47.619 384.292 47.6064V46.9797C384.356 46.9924 384.406 46.9987 384.444 46.9987C384.666 46.9987 384.831 46.9132 384.938 46.7423C385.027 46.6031 385.071 46.3784 385.071 46.0682V43.6659H387.844ZM392.156 44.2262V43.6659H392.84V47.6064H392.156V47.0557C391.814 47.4988 391.365 47.7203 390.808 47.7203C390.276 47.7203 389.824 47.5368 389.45 47.1696C389.077 46.8025 388.89 46.2897 388.89 45.6314C388.89 44.9858 389.073 44.4825 389.441 44.1217C389.814 43.7546 390.27 43.571 390.808 43.571C391.378 43.571 391.827 43.7894 392.156 44.2262ZM390.884 44.1787C390.523 44.1787 390.216 44.3084 389.963 44.568C389.716 44.8212 389.593 45.1757 389.593 45.6314C389.593 46.0682 389.706 46.4258 389.934 46.7044C390.169 46.9765 390.485 47.1126 390.884 47.1126C391.283 47.1126 391.599 46.9702 391.833 46.6854C392.074 46.4005 392.194 46.0524 392.194 45.6409C392.194 45.1725 392.061 44.8117 391.795 44.5585C391.53 44.3053 391.226 44.1787 390.884 44.1787ZM394.135 43.6659H394.818V46.2676L397.515 43.3621V47.6064H396.831V44.9763L394.135 47.8817V43.6659ZM394.476 41.9663L395.046 41.748C395.16 42.1278 395.429 42.3177 395.853 42.3177C396.277 42.3177 396.546 42.1278 396.66 41.748L397.23 41.9663C397.129 42.2512 396.955 42.4759 396.708 42.6405C396.467 42.8051 396.182 42.8874 395.853 42.8874C395.524 42.8874 395.236 42.8051 394.989 42.6405C394.749 42.4759 394.578 42.2512 394.476 41.9663ZM398.808 47.6064V43.6659H399.492V45.2801H401.353V43.6659H402.036V47.6064H401.353V45.9068H399.492V47.6064H398.808Z" fill="white"/>
<path d="M217.271 20.5666V22.2282H213.977L213.621 23.786C213.878 23.7465 214.101 23.7267 214.289 23.7267C215.347 23.7267 216.198 24.058 216.841 24.7207C217.424 25.3141 217.716 26.1054 217.716 27.0945C217.716 28.1429 217.38 29.0033 216.707 29.6759C216.034 30.3485 215.129 30.6848 213.992 30.6848C213.132 30.6848 212.419 30.5463 211.856 30.2694C211.43 30.0616 211.03 29.7798 210.654 29.4237L211.292 27.7621C211.579 28.1478 211.92 28.4445 212.316 28.6522C212.77 28.8995 213.25 29.0231 213.755 29.0231C214.388 29.0231 214.892 28.8253 215.268 28.4297C215.614 28.0637 215.787 27.584 215.787 26.9906C215.787 26.4268 215.594 25.9719 215.209 25.6257C214.823 25.2894 214.308 25.1213 213.666 25.1213C212.953 25.1213 212.241 25.3339 211.529 25.7592L212.701 20.5666H217.271ZM219.739 30.3287C219.521 30.1012 219.412 29.8243 219.412 29.4979C219.412 29.1715 219.521 28.8995 219.739 28.6819C219.966 28.4544 220.243 28.3407 220.57 28.3407C220.896 28.3407 221.168 28.4544 221.386 28.6819C221.613 28.8995 221.727 29.1715 221.727 29.4979C221.727 29.8243 221.613 30.1012 221.386 30.3287C221.168 30.5463 220.896 30.6551 220.57 30.6551C220.243 30.6551 219.966 30.5463 219.739 30.3287ZM229.352 29.3198C228.61 30.2298 227.71 30.6848 226.652 30.6848C225.593 30.6848 224.688 30.2298 223.937 29.3198C223.195 28.4 222.824 27.1291 222.824 25.507C222.824 23.8948 223.195 22.6338 223.937 21.7238C224.688 20.804 225.593 20.3441 226.652 20.3441C227.71 20.3441 228.61 20.804 229.352 21.7238C230.104 22.6338 230.479 23.8998 230.479 25.5218C230.479 27.134 230.104 28.4 229.352 29.3198ZM227.957 22.881C227.572 22.2975 227.136 22.0057 226.652 22.0057C226.167 22.0057 225.727 22.2975 225.331 22.881C224.946 23.4547 224.753 24.33 224.753 25.507C224.753 26.684 224.946 27.5643 225.331 28.1478C225.717 28.7314 226.157 29.0231 226.652 29.0231C227.146 29.0231 227.586 28.7314 227.972 28.1478C228.358 27.5643 228.551 26.684 228.551 25.507C228.551 24.33 228.353 23.4547 227.957 22.881ZM237.784 29.3198C237.042 30.2298 236.142 30.6848 235.084 30.6848C234.026 30.6848 233.121 30.2298 232.369 29.3198C231.627 28.4 231.256 27.1291 231.256 25.507C231.256 23.8948 231.627 22.6338 232.369 21.7238C233.121 20.804 234.026 20.3441 235.084 20.3441C236.142 20.3441 237.042 20.804 237.784 21.7238C238.536 22.6338 238.912 23.8998 238.912 25.5218C238.912 27.134 238.536 28.4 237.784 29.3198ZM236.389 22.881C236.004 22.2975 235.569 22.0057 235.084 22.0057C234.599 22.0057 234.159 22.2975 233.763 22.881C233.378 23.4547 233.185 24.33 233.185 25.507C233.185 26.684 233.378 27.5643 233.763 28.1478C234.149 28.7314 234.589 29.0231 235.084 29.0231C235.578 29.0231 236.019 28.7314 236.404 28.1478C236.79 27.5643 236.983 26.684 236.983 25.507C236.983 24.33 236.785 23.4547 236.389 22.881ZM246.216 29.3198C245.474 30.2298 244.574 30.6848 243.516 30.6848C242.458 30.6848 241.553 30.2298 240.801 29.3198C240.059 28.4 239.688 27.1291 239.688 25.507C239.688 23.8948 240.059 22.6338 240.801 21.7238C241.553 20.804 242.458 20.3441 243.516 20.3441C244.574 20.3441 245.474 20.804 246.216 21.7238C246.968 22.6338 247.344 23.8998 247.344 25.5218C247.344 27.134 246.968 28.4 246.216 29.3198ZM244.822 22.881C244.436 22.2975 244.001 22.0057 243.516 22.0057C243.031 22.0057 242.591 22.2975 242.196 22.881C241.81 23.4547 241.617 24.33 241.617 25.507C241.617 26.684 241.81 27.5643 242.196 28.1478C242.581 28.7314 243.022 29.0231 243.516 29.0231C244.011 29.0231 244.451 28.7314 244.836 28.1478C245.222 27.5643 245.415 26.684 245.415 25.507C245.415 24.33 245.217 23.4547 244.822 22.881Z" fill="#272931"/>
<path d="M191.732 41.2732V43.8464H194.98V41.2732H195.682V47.6064H194.98V44.511H191.732V47.6064H191.03V41.2732H191.732ZM200.165 44.2262V43.6659H200.849V47.6064H200.165V47.0557C199.823 47.4988 199.374 47.7203 198.817 47.7203C198.285 47.7203 197.832 47.5368 197.459 47.1696C197.085 46.8025 196.899 46.2897 196.899 45.6314C196.899 44.9858 197.082 44.4825 197.449 44.1217C197.823 43.7546 198.279 43.571 198.817 43.571C199.386 43.571 199.836 43.7894 200.165 44.2262ZM198.893 44.1787C198.532 44.1787 198.225 44.3084 197.972 44.568C197.725 44.8212 197.601 45.1757 197.601 45.6314C197.601 46.0682 197.715 46.4258 197.943 46.7044C198.177 46.9765 198.494 47.1126 198.893 47.1126C199.291 47.1126 199.608 46.9702 199.842 46.6854C200.083 46.4005 200.203 46.0524 200.203 45.6409C200.203 45.1725 200.07 44.8117 199.804 44.5585C199.538 44.3053 199.234 44.1787 198.893 44.1787ZM202.143 47.6064V43.6659H202.827V46.9797H204.346V43.6659H205.03V46.9797H206.549V43.6659H207.233V47.6064H202.143ZM208.523 47.6064V43.6659H209.207V45.1757H209.909C210.454 45.1757 210.852 45.3054 211.106 45.565C211.308 45.7675 211.409 46.0429 211.409 46.391C211.409 46.7582 211.292 47.0525 211.058 47.2741C210.824 47.4956 210.438 47.6064 209.9 47.6064H208.523ZM209.207 46.9987H209.843C210.128 46.9987 210.33 46.9639 210.45 46.8943C210.621 46.7803 210.707 46.6126 210.707 46.391C210.707 46.1631 210.625 45.9986 210.46 45.8973C210.346 45.8213 210.143 45.7833 209.852 45.7833H209.207V46.9987ZM211.884 47.6064V43.6659H212.568V47.6064H211.884ZM213.285 47.6064L214.966 45.4985L213.532 43.6659H214.367L215.383 45.0047L216.418 43.6659H217.254L215.811 45.508L217.444 47.6064H216.608L215.364 46.0017L214.12 47.6064H213.285ZM223.468 43.9508V44.7674C223.158 44.3749 222.747 44.1787 222.234 44.1787C221.848 44.1787 221.519 44.3116 221.246 44.5775C220.974 44.837 220.838 45.1946 220.838 45.6504C220.838 46.1062 220.974 46.4638 221.246 46.7233C221.519 46.9829 221.845 47.1126 222.224 47.1126C222.731 47.1126 223.155 46.9069 223.497 46.4955V47.312C223.123 47.5842 222.706 47.7203 222.243 47.7203C221.629 47.7203 221.123 47.5273 220.724 47.1411C220.332 46.7487 220.136 46.2549 220.136 45.6599C220.136 45.0586 220.335 44.5616 220.734 44.1692C221.133 43.7704 221.636 43.571 222.243 43.571C222.699 43.571 223.108 43.6976 223.468 43.9508ZM227.777 47.1316C227.384 47.5241 226.887 47.7203 226.286 47.7203C225.684 47.7203 225.184 47.5241 224.786 47.1316C224.393 46.7392 224.197 46.2454 224.197 45.6504C224.197 45.0491 224.393 44.5522 224.786 44.1597C225.184 43.7672 225.684 43.571 226.286 43.571C226.887 43.571 227.384 43.7672 227.777 44.1597C228.175 44.5522 228.375 45.0491 228.375 45.6504C228.375 46.2454 228.175 46.7392 227.777 47.1316ZM227.264 44.568C226.998 44.3084 226.672 44.1787 226.286 44.1787C225.9 44.1787 225.571 44.3116 225.298 44.5775C225.032 44.837 224.9 45.1946 224.9 45.6504C224.9 46.1062 225.036 46.4638 225.308 46.7233C225.58 46.9829 225.906 47.1126 226.286 47.1126C226.666 47.1126 226.992 46.9829 227.264 46.7233C227.536 46.4638 227.672 46.1062 227.672 45.6504C227.672 45.1883 227.536 44.8275 227.264 44.568ZM231.913 44.2926H230.679V47.6064H229.995V44.2926H228.761V43.6659H231.913V44.2926ZM233.315 47.0557V49.7902H232.631V43.6659H233.315V44.2167C233.663 43.7862 234.113 43.571 234.663 43.571C235.252 43.571 235.717 43.7799 236.059 44.1977C236.407 44.6091 236.581 45.0965 236.581 45.6599C236.581 46.2296 236.41 46.717 236.069 47.1221C235.727 47.5209 235.268 47.7203 234.692 47.7203C234.116 47.7203 233.657 47.4988 233.315 47.0557ZM234.597 47.1126C234.983 47.1126 235.293 46.9734 235.527 46.6949C235.762 46.41 235.879 46.065 235.879 45.6599C235.879 45.2041 235.749 44.8433 235.489 44.5775C235.23 44.3116 234.929 44.1787 234.587 44.1787C234.246 44.1787 233.942 44.3116 233.676 44.5775C233.41 44.8433 233.277 45.201 233.277 45.6504C233.277 46.0619 233.397 46.41 233.638 46.6949C233.885 46.9734 234.204 47.1126 234.597 47.1126ZM237.62 49.7902L238.873 47.2361L237.06 43.6659H237.838L239.234 46.486L240.516 43.6659H241.275L238.379 49.7902H237.62ZM242.281 43.6659H245.054V46.9797H245.643V48.6508H245.016V47.6064H242.016V48.6508H241.389V46.9797C241.718 46.9734 241.962 46.8025 242.12 46.467C242.228 46.2454 242.281 45.8973 242.281 45.4225V43.6659ZM244.37 46.9797V44.2926H242.965V45.7738C242.965 46.2992 242.807 46.7012 242.49 46.9797H244.37ZM246.364 47.6064V43.6659H247.048V45.2801H248.909V43.6659H249.592V47.6064H248.909V45.9068H247.048V47.6064H246.364ZM250.88 43.6659H251.563V46.2676L254.26 43.3621V47.6064H253.576V44.9763L250.88 47.8817V43.6659ZM255.553 43.6659H256.237V45.2801L257.832 43.6659H258.667L256.958 45.4225L258.876 47.6064H257.984L256.446 45.8783L256.237 46.0777V47.6064H255.553V43.6659ZM262.706 47.1316C262.314 47.5241 261.817 47.7203 261.215 47.7203C260.614 47.7203 260.114 47.5241 259.715 47.1316C259.323 46.7392 259.126 46.2454 259.126 45.6504C259.126 45.0491 259.323 44.5522 259.715 44.1597C260.114 43.7672 260.614 43.571 261.215 43.571C261.817 43.571 262.314 43.7672 262.706 44.1597C263.105 44.5522 263.304 45.0491 263.304 45.6504C263.304 46.2454 263.105 46.7392 262.706 47.1316ZM262.193 44.568C261.927 44.3084 261.601 44.1787 261.215 44.1787C260.829 44.1787 260.5 44.3116 260.228 44.5775C259.962 44.837 259.829 45.1946 259.829 45.6504C259.829 46.1062 259.965 46.4638 260.237 46.7233C260.51 46.9829 260.835 47.1126 261.215 47.1126C261.595 47.1126 261.921 46.9829 262.193 46.7233C262.465 46.4638 262.602 46.1062 262.602 45.6504C262.602 45.1883 262.465 44.8275 262.193 44.568ZM264.353 43.6659H265.843C266.204 43.6659 266.479 43.7419 266.669 43.8938C266.897 44.0774 267.011 44.3243 267.011 44.6344C267.011 44.9763 266.869 45.239 266.584 45.4225C266.78 45.4732 266.945 45.5618 267.078 45.6884C267.287 45.8909 267.391 46.1441 267.391 46.448C267.391 46.8278 267.255 47.1253 266.983 47.3405C266.748 47.5178 266.438 47.6064 266.052 47.6064H264.353V43.6659ZM265.036 45.2706H265.758C265.941 45.2706 266.087 45.2326 266.195 45.1567C266.321 45.0617 266.385 44.9256 266.385 44.7484C266.385 44.5901 266.321 44.4635 266.195 44.3686C266.1 44.3053 265.916 44.2736 265.644 44.2736H265.036V45.2706ZM265.036 46.9987H265.881C266.172 46.9987 266.378 46.9544 266.498 46.8658C266.65 46.7518 266.726 46.6062 266.726 46.429C266.726 46.2391 266.66 46.0903 266.527 45.9827C266.407 45.8878 266.201 45.8403 265.91 45.8403H265.036V46.9987Z" fill="#BDC1CF"/>
<path d="M349.462 30.4622L352.37 27.1538C353.319 26.046 353.883 25.3586 354.061 25.0916C354.447 24.5179 354.64 23.9888 354.64 23.5041C354.64 23.0591 354.496 22.6981 354.209 22.4211C353.932 22.1442 353.586 22.0057 353.171 22.0057C352.696 22.0057 352.32 22.1689 352.043 22.4953C351.766 22.8118 351.618 23.1975 351.598 23.6525H349.61C349.65 22.6535 349.991 21.8524 350.634 21.2491C351.277 20.6457 352.093 20.3441 353.082 20.3441C354.17 20.3441 355.02 20.6556 355.634 21.2787C356.257 21.9019 356.568 22.6387 356.568 23.4893C356.568 23.9641 356.459 24.4388 356.242 24.9136C356.024 25.3883 355.817 25.7493 355.619 25.9966C355.421 26.234 355.139 26.5505 354.773 26.9461L353.067 28.8006H356.642V30.4622H349.462ZM364.54 29.3198C363.799 30.2298 362.899 30.6848 361.84 30.6848C360.782 30.6848 359.877 30.2298 359.125 29.3198C358.384 28.4 358.013 27.1291 358.013 25.507C358.013 23.8948 358.384 22.6338 359.125 21.7238C359.877 20.804 360.782 20.3441 361.84 20.3441C362.899 20.3441 363.799 20.804 364.54 21.7238C365.292 22.6338 365.668 23.8998 365.668 25.5218C365.668 27.134 365.292 28.4 364.54 29.3198ZM363.146 22.881C362.76 22.2975 362.325 22.0057 361.84 22.0057C361.356 22.0057 360.916 22.2975 360.52 22.881C360.134 23.4547 359.941 24.33 359.941 25.507C359.941 26.684 360.134 27.5643 360.52 28.1478C360.906 28.7314 361.346 29.0231 361.84 29.0231C362.335 29.0231 362.775 28.7314 363.161 28.1478C363.546 27.5643 363.739 26.684 363.739 25.507C363.739 24.33 363.542 23.4547 363.146 22.881ZM367.098 30.3287C366.88 30.1012 366.771 29.8243 366.771 29.4979C366.771 29.1715 366.88 28.8995 367.098 28.6819C367.325 28.4544 367.602 28.3407 367.928 28.3407C368.255 28.3407 368.527 28.4544 368.744 28.6819C368.972 28.8995 369.086 29.1715 369.086 29.4979C369.086 29.8243 368.972 30.1012 368.744 30.3287C368.527 30.5463 368.255 30.6551 367.928 30.6551C367.602 30.6551 367.325 30.5463 367.098 30.3287ZM376.8 20.5666V22.2282H373.506L373.15 23.786C373.407 23.7465 373.63 23.7267 373.818 23.7267C374.876 23.7267 375.726 24.058 376.369 24.7207C376.953 25.3141 377.245 26.1054 377.245 27.0945C377.245 28.1429 376.908 29.0033 376.236 29.6759C375.563 30.3485 374.658 30.6848 373.521 30.6848C372.66 30.6848 371.948 30.5463 371.384 30.2694C370.959 30.0616 370.559 29.7798 370.183 29.4237L370.821 27.7621C371.108 28.1478 371.449 28.4445 371.844 28.6522C372.299 28.8995 372.779 29.0231 373.283 29.0231C373.916 29.0231 374.421 28.8253 374.797 28.4297C375.143 28.0637 375.316 27.584 375.316 26.9906C375.316 26.4268 375.123 25.9719 374.737 25.6257C374.352 25.2894 373.837 25.1213 373.194 25.1213C372.482 25.1213 371.77 25.3339 371.058 25.7592L372.23 20.5666H376.8ZM382.828 20.2996L384.386 21.0562L381.983 24.1866C382.339 24.0283 382.7 23.9492 383.066 23.9492C383.936 23.9492 384.663 24.2311 385.247 24.7949C385.87 25.3784 386.181 26.1697 386.181 27.1686C386.181 28.1082 385.88 28.9044 385.276 29.5572C384.584 30.3089 383.644 30.6848 382.457 30.6848C381.251 30.6848 380.311 30.3485 379.639 29.6759C378.996 29.033 378.674 28.2319 378.674 27.2725C378.674 26.3131 379.09 25.2845 379.921 24.1866L382.828 20.2996ZM382.428 29.1418C382.952 29.1418 383.382 28.9737 383.719 28.6374C384.075 28.2813 384.253 27.8461 384.253 27.3318C384.253 26.7681 384.07 26.3131 383.704 25.9669C383.377 25.6504 382.952 25.4922 382.428 25.4922C381.904 25.4922 381.473 25.6702 381.137 26.0263C380.781 26.3922 380.603 26.8225 380.603 27.317C380.603 27.8709 380.786 28.3159 381.152 28.6522C381.498 28.9786 381.923 29.1418 382.428 29.1418ZM393.575 29.3198C392.833 30.2298 391.933 30.6848 390.875 30.6848C389.816 30.6848 388.912 30.2298 388.16 29.3198C387.418 28.4 387.047 27.1291 387.047 25.507C387.047 23.8948 387.418 22.6338 388.16 21.7238C388.912 20.804 389.816 20.3441 390.875 20.3441C391.933 20.3441 392.833 20.804 393.575 21.7238C394.327 22.6338 394.702 23.8998 394.702 25.5218C394.702 27.134 394.327 28.4 393.575 29.3198ZM392.18 22.881C391.795 22.2975 391.359 22.0057 390.875 22.0057C390.39 22.0057 389.95 22.2975 389.554 22.881C389.169 23.4547 388.976 24.33 388.976 25.507C388.976 26.684 389.169 27.5643 389.554 28.1478C389.94 28.7314 390.38 29.0231 390.875 29.0231C391.369 29.0231 391.809 28.7314 392.195 28.1478C392.581 27.5643 392.774 26.684 392.774 25.507C392.774 24.33 392.576 23.4547 392.18 22.881Z" fill="white"/>
<rect y="1" width="313.336" height="62.3111" rx="6" fill="#F6F7F9"/>
<rect x="156.371" y="14.3524" width="0.593439" height="35.6064" stroke="#DDDDDD" stroke-width="0.593439" stroke-dasharray="5 5"/>
<path d="M417.188 63.0144C431.925 58.4647 464.604 39.4549 477.422 1" stroke="url(#paint0_linear_73_40)" stroke-width="0.593439" stroke-linecap="round"/>
<path d="M455.465 63.3111C464.252 60.5982 469.466 44.6382 480.5 30.5C487.971 20.9281 505.325 16.5244 510.5 1" stroke="url(#paint1_linear_73_40)" stroke-width="0.593439" stroke-linecap="round"/>
<path d="M483.653 63.3111C498.39 58.7614 510.595 39.4549 523.414 1" stroke="url(#paint2_linear_73_40)" stroke-width="0.593439" stroke-linecap="round"/>
<path d="M505.61 63.3111C520.347 58.7614 532.553 39.4549 545.371 1" stroke="url(#paint3_linear_73_40)" stroke-width="0.593439" stroke-linecap="round"/>
<path d="M532.909 63.3111C547.646 58.7614 559.851 39.4549 572.669 1" stroke="url(#paint4_linear_73_40)" stroke-width="0.593439" stroke-linecap="round"/>
<path d="M557.24 63.3111C571.977 58.7614 582.682 41.4549 595.5 3" stroke="url(#paint5_linear_73_40)" stroke-width="0.593439" stroke-linecap="round"/>
<defs>
<linearGradient id="paint0_linear_73_40" x1="447.305" y1="1" x2="447.305" y2="63.0144" gradientUnits="userSpaceOnUse">
<stop stop-color="white"/>
<stop offset="1" stop-color="white" stop-opacity="0"/>
</linearGradient>
<linearGradient id="paint1_linear_73_40" x1="465.108" y1="1" x2="465.108" y2="63.0144" gradientUnits="userSpaceOnUse">
<stop stop-color="white"/>
<stop offset="1" stop-color="white" stop-opacity="0"/>
</linearGradient>
<linearGradient id="paint2_linear_73_40" x1="493.296" y1="1" x2="493.296" y2="63.0144" gradientUnits="userSpaceOnUse">
<stop stop-color="white"/>
<stop offset="1" stop-color="white" stop-opacity="0"/>
</linearGradient>
<linearGradient id="paint3_linear_73_40" x1="515.254" y1="1" x2="515.254" y2="63.0144" gradientUnits="userSpaceOnUse">
<stop stop-color="white"/>
<stop offset="1" stop-color="white" stop-opacity="0"/>
</linearGradient>
<linearGradient id="paint4_linear_73_40" x1="542.552" y1="1" x2="542.552" y2="63.0144" gradientUnits="userSpaceOnUse">
<stop stop-color="white"/>
<stop offset="1" stop-color="white" stop-opacity="0"/>
</linearGradient>
<linearGradient id="paint5_linear_73_40" x1="566.883" y1="1" x2="566.883" y2="63.0144" gradientUnits="userSpaceOnUse">
<stop stop-color="white"/>
<stop offset="1" stop-color="white" stop-opacity="0"/>
</linearGradient>
</defs>
</svg>
