<svg width="310" height="64" viewBox="0 0 310 64" fill="none" xmlns="http://www.w3.org/2000/svg">
<rect width="310" height="64" rx="8" fill="#E36C51"/>
<path d="M105.6 25.66V39H107.64V27.58H113.36V39H115.4V25.66H105.6ZM120.208 38.02C121.088 39.1 122.268 39.26 122.728 39.26C124.728 39.26 126.808 37.58 126.808 34.74C126.808 32.06 124.928 30.36 122.708 30.36C121.868 30.36 120.928 30.64 120.208 31.5V30.58H118.248V43.58H120.208V38.02ZM122.468 32.12C123.888 32.12 124.808 33.32 124.808 34.82C124.808 36.28 123.888 37.5 122.468 37.5C121.228 37.5 120.088 36.6 120.088 34.84C120.088 33 121.228 32.12 122.468 32.12ZM132.913 30.36C130.373 30.36 128.413 32.2 128.413 34.8C128.413 37.38 130.373 39.26 132.913 39.26C135.453 39.26 137.413 37.38 137.413 34.8C137.413 32.2 135.453 30.36 132.913 30.36ZM132.913 37.5C131.373 37.5 130.413 36.44 130.413 34.82C130.413 32.9 131.673 32.12 132.913 32.12C134.153 32.12 135.413 32.9 135.413 34.82C135.413 36.44 134.453 37.5 132.913 37.5ZM140.179 30.58V33.88C140.179 34.9 140.079 35.58 139.839 36.1C139.579 36.62 139.059 37.16 138.299 37.2V41.4H140.099V39H145.979V41.4H147.779V37.2H146.499V30.58H140.179ZM144.539 37.2H141.079C141.599 36.8 142.059 36.08 142.059 34.62V32.38H144.539V37.2ZM153.245 30.36C150.705 30.36 148.745 32.2 148.745 34.8C148.745 37.38 150.705 39.26 153.245 39.26C155.785 39.26 157.745 37.38 157.745 34.8C157.745 32.2 155.785 30.36 153.245 30.36ZM153.245 37.5C151.705 37.5 150.745 36.44 150.745 34.82C150.745 32.9 152.005 32.12 153.245 32.12C154.485 32.12 155.745 32.9 155.745 34.82C155.745 36.44 154.785 37.5 153.245 37.5ZM166.711 30.58H160.391V35.72C160.391 36.04 160.351 36.5 160.091 36.82C159.831 37.12 159.291 37.34 158.711 37.2V39C159.611 39.14 160.711 38.98 161.471 38.14C162.171 37.38 162.271 36.44 162.271 35.72V32.38H164.751V39H166.711V30.58ZM173.205 30.58V33.7L170.665 30.58H168.305L171.565 34.42L167.985 39H170.425L172.965 35.62L173.205 35.9V39H175.165V35.9L175.405 35.62L177.945 39H180.385L176.805 34.42L180.065 30.58H177.705L175.165 33.7V30.58H173.205ZM181.666 30.58V39.64L187.426 34.1V39H189.386V29.82L183.626 35.36V30.58H181.666ZM197.661 32.38V30.58H190.781V32.38H193.241V39H195.201V32.38H197.661ZM199.068 39H202.128C202.968 39 203.848 39 204.588 38.28C204.968 37.9 205.348 37.24 205.348 36.26C205.348 35.76 205.248 35.04 204.688 34.42C203.928 33.58 202.968 33.56 202.148 33.56H201.028V30.58H199.068V39ZM201.028 37.32V35.24H201.948C202.248 35.24 202.648 35.24 202.968 35.44C203.208 35.6 203.388 35.86 203.388 36.28C203.388 36.8 203.088 37.04 202.948 37.14C202.688 37.3 202.308 37.32 201.928 37.32H201.028Z" fill="white"/>
</svg>
