<svg width="316" height="54" viewBox="0 0 316 54" fill="none" xmlns="http://www.w3.org/2000/svg">
<rect width="316" height="54" rx="8" fill="#FA8166"/>
<path d="M134.88 20.66V26.78C134.88 28.62 134.66 29.62 134.4 30.28C134 31.28 133.24 32.12 132.28 32.08V37H134.2V34H142.8V37H144.72V32.08H143.2V20.66H134.88ZM136.92 22.58H141.16V32.08H135.42C135.8 31.72 136.18 31.24 136.46 30.5C136.7 29.86 136.92 28.84 136.92 26.78V22.58ZM152.408 26.56C151.608 25.52 150.528 25.36 149.908 25.36C147.688 25.36 145.808 27.04 145.808 29.78C145.808 32.1 147.288 34.26 149.888 34.26C150.488 34.26 151.548 34.12 152.408 33.12V34H154.368V25.58H152.408V26.56ZM150.148 27.12C151.388 27.12 152.528 28 152.528 29.84C152.528 31.6 151.388 32.5 150.148 32.5C148.728 32.5 147.808 31.28 147.808 29.82C147.808 28.32 148.728 27.12 150.148 27.12ZM163.773 25.58H157.453V30.72C157.453 31.04 157.413 31.5 157.153 31.82C156.893 32.12 156.353 32.34 155.773 32.2V34C156.673 34.14 157.773 33.98 158.533 33.14C159.233 32.38 159.333 31.44 159.333 30.72V27.38H161.813V34H163.773V25.58ZM172.148 31.16C171.968 31.48 171.708 31.82 171.368 32.08C170.968 32.38 170.568 32.5 170.028 32.5C169.548 32.5 168.988 32.42 168.528 31.96C168.108 31.54 167.848 30.86 167.808 30.26H173.848V30.02C173.848 29.14 173.748 27.58 172.668 26.46C172.168 25.94 171.308 25.36 169.968 25.36C168.768 25.36 167.848 25.8 167.148 26.5C166.268 27.4 165.808 28.66 165.808 29.96C165.808 31.22 166.248 32.38 167.048 33.18C167.848 33.98 168.768 34.26 169.888 34.26C170.788 34.26 171.688 34.06 172.368 33.62C172.908 33.28 173.428 32.72 173.788 32.08L172.148 31.16ZM167.948 28.66C168.048 28.24 168.268 27.84 168.548 27.58C168.808 27.32 169.248 27.04 169.928 27.04C170.568 27.04 170.988 27.28 171.248 27.52C171.548 27.8 171.768 28.2 171.848 28.66H167.948ZM181.796 31.16C181.616 31.48 181.356 31.82 181.016 32.08C180.616 32.38 180.216 32.5 179.676 32.5C179.196 32.5 178.636 32.42 178.176 31.96C177.756 31.54 177.496 30.86 177.456 30.26H183.496V30.02C183.496 29.14 183.396 27.58 182.316 26.46C181.816 25.94 180.956 25.36 179.616 25.36C178.416 25.36 177.496 25.8 176.796 26.5C175.916 27.4 175.456 28.66 175.456 29.96C175.456 31.22 175.896 32.38 176.696 33.18C177.496 33.98 178.416 34.26 179.536 34.26C180.436 34.26 181.336 34.06 182.016 33.62C182.556 33.28 183.076 32.72 183.436 32.08L181.796 31.16ZM177.596 28.66C177.696 28.24 177.916 27.84 178.196 27.58C178.456 27.32 178.896 27.04 179.576 27.04C180.216 27.04 180.636 27.28 180.896 27.52C181.196 27.8 181.416 28.2 181.496 28.66H177.596Z" fill="white"/>
</svg>
