<svg width="147" height="52" viewBox="0 0 147 52" fill="none" xmlns="http://www.w3.org/2000/svg">
<path d="M6.15088 37.1163V47.8035H2.38347V22.8155H6.15088V24.5839C7.38106 23.123 8.98285 22.3926 10.9563 22.3926C13.1603 22.3926 15.0184 23.1743 16.5305 24.7376C18.0682 26.2754 18.8371 28.3 18.8371 30.8116C18.8371 33.4001 18.0426 35.5017 16.4536 37.1163C14.8646 38.7053 13.045 39.4998 10.9947 39.4998C9.07255 39.4998 7.45794 38.7053 6.15088 37.1163ZM10.4949 25.7756C9.21351 25.7756 8.12429 26.2369 7.22729 27.1596C6.35591 28.0566 5.92022 29.338 5.92022 31.0039C5.92022 32.6185 6.35591 33.8743 7.22729 34.7713C8.12429 35.6683 9.21351 36.1168 10.4949 36.1168C11.8276 36.1168 12.904 35.617 13.7242 34.6175C14.5699 33.618 14.9928 32.4006 14.9928 30.9654C14.9928 29.5046 14.5699 28.2744 13.7242 27.2749C12.904 26.2754 11.8276 25.7756 10.4949 25.7756ZM32.6486 25.2374L29.8423 27.0827C29.2785 26.16 28.5096 25.6987 27.5357 25.6987C27.0488 25.6987 26.6643 25.8397 26.3824 26.1216C26.1518 26.3522 26.0364 26.6342 26.0364 26.9673C26.0364 27.3518 26.2158 27.6593 26.5746 27.89C26.6515 27.9412 26.7284 27.9925 26.8053 28.0437C26.8822 28.0694 27.0231 28.1334 27.2282 28.236C27.4332 28.3385 27.6382 28.441 27.8433 28.5435L29.7654 29.5046C30.8418 30.0428 31.5979 30.5425 32.0335 31.0039C32.828 31.7983 33.2253 32.7979 33.2253 34.0024C33.2253 35.4376 32.7511 36.6678 31.8029 37.6929C30.7008 38.8975 29.1888 39.4998 27.2666 39.4998C25.8314 39.4998 24.6653 39.1538 23.7683 38.4618C22.7944 37.7442 22.1024 36.7575 21.6924 35.5017L24.7678 34.0409C25.0241 34.7841 25.3188 35.2967 25.652 35.5786C26.0621 35.9886 26.6131 36.1937 27.305 36.1937C27.9714 36.1937 28.484 36.0143 28.8428 35.6555C29.2016 35.2967 29.381 34.8738 29.381 34.3868C29.381 33.9255 29.2144 33.5155 28.8812 33.1567C28.5224 32.7979 27.9842 32.4647 27.2666 32.1571L25.8827 31.5036C24.8063 30.991 24.063 30.5297 23.653 30.1197C22.8841 29.3764 22.4997 28.4666 22.4997 27.3902C22.4997 26.0319 22.9482 24.8786 23.8452 23.9303C24.8191 22.9052 26.1389 22.3926 27.8048 22.3926C28.9581 22.3926 29.9576 22.6745 30.8034 23.2384C31.5722 23.7253 32.1873 24.3917 32.6486 25.2374ZM35.0546 47.8035L41.0133 36.4628L34.0935 22.8155H38.6298L43.243 32.2725L47.933 22.8155H52.1618L39.2833 47.8035H35.0546ZM53.6097 38.8078C53.174 38.3465 52.9561 37.7955 52.9561 37.1547C52.9561 36.514 53.174 35.9758 53.6097 35.5401C54.071 35.0788 54.622 34.8482 55.2627 34.8482C55.9034 34.8482 56.4416 35.0788 56.8773 35.5401C57.3387 35.9758 57.5693 36.514 57.5693 37.1547C57.5693 37.7955 57.3387 38.3465 56.8773 38.8078C56.4416 39.2435 55.9034 39.4613 55.2627 39.4613C54.622 39.4613 54.071 39.2435 53.6097 38.8078Z" fill="black"/>
<path d="M66.2556 37.1163V47.8035H62.4882V22.8155H66.2556V24.5839C67.4858 23.123 69.0876 22.3926 71.061 22.3926C73.2651 22.3926 75.1232 23.1743 76.6352 24.7376C78.173 26.2754 78.9418 28.3 78.9418 30.8116C78.9418 33.4001 78.1473 35.5017 76.5584 37.1163C74.9694 38.7053 73.1497 39.4998 71.0994 39.4998C69.1773 39.4998 67.5627 38.7053 66.2556 37.1163ZM70.5997 25.7756C69.3183 25.7756 68.229 26.2369 67.332 27.1596C66.4607 28.0566 66.025 29.338 66.025 31.0039C66.025 32.6185 66.4607 33.8743 67.332 34.7713C68.229 35.6683 69.3183 36.1168 70.5997 36.1168C71.9324 36.1168 73.0088 35.617 73.8289 34.6175C74.6747 33.618 75.0975 32.4006 75.0975 30.9654C75.0975 29.5046 74.6747 28.2744 73.8289 27.2749C73.0088 26.2754 71.9324 25.7756 70.5997 25.7756ZM82.8735 39V22.8155H86.6409V24.2763C87.1279 23.7125 87.6533 23.264 88.2171 22.9308C88.8322 22.572 89.601 22.3926 90.5237 22.3926C91.6257 22.3926 92.6124 22.6489 93.4838 23.1615L91.9461 26.5829C91.331 26.1985 90.6903 26.0063 90.0239 26.0063C89.0244 26.0063 88.2427 26.301 87.6789 26.8905C86.9869 27.6337 86.6409 28.8767 86.6409 30.6194V39H82.8735ZM96.5016 24.8145C98.1674 23.1999 100.231 22.3926 102.691 22.3926C105.151 22.3926 107.202 23.1999 108.842 24.8145C110.508 26.4035 111.341 28.441 111.341 30.927C111.341 33.3873 110.508 35.4376 108.842 37.0778C107.202 38.6925 105.151 39.4998 102.691 39.4998C100.231 39.4998 98.1674 38.6925 96.5016 37.0778C94.8613 35.4376 94.0412 33.3873 94.0412 30.927C94.0412 28.441 94.8613 26.4035 96.5016 24.8145ZM99.1926 34.7328C100.064 35.6555 101.23 36.1168 102.691 36.1168C104.152 36.1168 105.318 35.6555 106.189 34.7328C107.061 33.7846 107.496 32.5288 107.496 30.9654C107.496 29.2483 107.022 27.954 106.074 27.0827C105.151 26.2113 104.024 25.7756 102.691 25.7756C101.358 25.7756 100.218 26.2113 99.2695 27.0827C98.3468 27.954 97.8855 29.2483 97.8855 30.9654C97.8855 32.5288 98.3212 33.7846 99.1926 34.7328Z" fill="#FA8166"/>
<mask id="mask0_10_86" style="mask-type:alpha" maskUnits="userSpaceOnUse" x="95" y="0" width="52" height="52">
<circle cx="120.629" cy="25.6287" r="25.6287" fill="white"/>
</mask>
<g mask="url(#mask0_10_86)">
<circle cx="153.946" cy="25.6287" r="25.6287" fill="#FA8166"/>
</g>
</svg>
