<svg width="58" height="58" viewBox="0 0 58 58" fill="none" xmlns="http://www.w3.org/2000/svg">
<circle r="29" transform="matrix(-1 0 0 1 29 29)" fill="#F0E9E9"/>
<path d="M24.3692 30.131C24.4257 30.189 24.6391 30.437 24.8378 30.641C26.0029 31.924 29.0424 34.024 30.6332 34.665C30.8748 34.768 31.4856 34.986 31.812 35C32.1247 35 32.4228 34.928 32.7073 34.782C33.0619 34.578 33.3463 34.257 33.5022 33.878C33.6025 33.615 33.7584 32.828 33.7584 32.814C33.9143 31.953 34 30.554 34 29.008C34 27.535 33.9143 26.193 33.7867 25.319C33.772 25.305 33.6162 24.327 33.4457 23.992C33.133 23.38 32.5222 23 31.8685 23H31.812C31.3863 23.015 30.491 23.395 30.491 23.409C28.9859 24.051 26.0166 26.048 24.8232 27.375C24.8232 27.375 24.4871 27.716 24.341 27.929C24.113 28.235 24 28.614 24 28.993C24 29.416 24.1276 29.81 24.3692 30.131Z" fill="#B7B5B5"/>
</svg>
