<svg width="58" height="58" viewBox="0 0 58 58" fill="none" xmlns="http://www.w3.org/2000/svg">
<circle cx="29" cy="29" r="29" fill="white"/>
<path d="M33.6308 30.131C33.5743 30.189 33.3609 30.437 33.1622 30.641C31.9971 31.924 28.9576 34.024 27.3668 34.665C27.1252 34.768 26.5144 34.986 26.188 35C25.8753 35 25.5772 34.928 25.2927 34.782C24.9381 34.578 24.6537 34.257 24.4978 33.878C24.3975 33.615 24.2416 32.828 24.2416 32.814C24.0857 31.953 24 30.554 24 29.008C24 27.535 24.0857 26.193 24.2133 25.319C24.228 25.305 24.3838 24.327 24.5543 23.992C24.867 23.38 25.4778 23 26.1315 23H26.188C26.6137 23.015 27.509 23.395 27.509 23.409C29.0141 24.051 31.9834 26.048 33.1768 27.375C33.1768 27.375 33.5129 27.716 33.659 27.929C33.887 28.235 34 28.614 34 28.993C34 29.416 33.8724 29.81 33.6308 30.131Z" fill="#FA8166"/>
</svg>
