<svg width="23" height="23" viewBox="0 0 23 23" fill="none" xmlns="http://www.w3.org/2000/svg">
<g clip-path="url(#clip0_8_63)">
<path d="M22.094 7.38626C22.0421 6.21119 21.8521 5.40333 21.5799 4.70332C21.2991 3.96027 20.8671 3.29501 20.301 2.74199C19.748 2.18035 19.0784 1.74394 18.3439 1.46751C17.6399 1.1953 16.8362 1.00528 15.6612 0.953469C14.4773 0.897272 14.1015 0.884277 11.0989 0.884277C8.09633 0.884277 7.7205 0.897272 6.54104 0.949081C5.36597 1.00089 4.55811 1.19108 3.85827 1.46312C3.11505 1.74394 2.4498 2.17597 1.89677 2.74199C1.33514 3.29501 0.898894 3.96465 0.622297 4.6991C0.350087 5.40333 0.160063 6.2068 0.108254 7.38187C0.052057 8.56572 0.0390625 8.94155 0.0390625 11.9441C0.0390625 14.9467 0.052057 15.3225 0.103866 16.502C0.155676 17.6771 0.345868 18.4849 0.618078 19.1849C0.898894 19.928 1.33514 20.5932 1.89677 21.1463C2.4498 21.7079 3.11944 22.1443 3.85388 22.4207C4.55811 22.693 5.36158 22.883 6.53682 22.9348C7.71612 22.9868 8.09211 22.9996 11.0947 22.9996C14.0973 22.9996 14.4731 22.9868 15.6526 22.9348C16.8276 22.883 17.6355 22.693 18.3353 22.4207C19.8216 21.8461 20.9967 20.671 21.5713 19.1849C21.8433 18.4807 22.0335 17.6771 22.0853 16.502C22.1372 15.3225 22.1501 14.9467 22.1501 11.9441C22.1501 8.94155 22.1458 8.56572 22.094 7.38626ZM20.1024 16.4156C20.0548 17.4957 19.8734 18.0789 19.7222 18.4677C19.3506 19.4312 18.5859 20.1958 17.6225 20.5674C17.2337 20.7186 16.6462 20.9001 15.5704 20.9475C14.4039 20.9995 14.0541 21.0123 11.1033 21.0123C8.15253 21.0123 7.7983 20.9995 6.63605 20.9475C5.55599 20.9001 4.97276 20.7186 4.58393 20.5674C4.10449 20.3902 3.66807 20.1094 3.31385 19.7422C2.94663 19.3836 2.66581 18.9515 2.48861 18.4721C2.3374 18.0833 2.15599 17.4957 2.10856 16.42C2.05659 15.2535 2.04376 14.9035 2.04376 11.9527C2.04376 9.00197 2.05659 8.64774 2.10856 7.48566C2.15599 6.4056 2.3374 5.82236 2.48861 5.43354C2.66581 4.95392 2.94663 4.51768 3.31824 4.16328C3.67668 3.79606 4.10871 3.51525 4.58832 3.33822C4.97714 3.18701 5.56477 3.00559 6.64044 2.958C7.80691 2.90619 8.15692 2.8932 11.1075 2.8932C14.0627 2.8932 14.4125 2.90619 15.5748 2.958C16.6548 3.00559 17.2381 3.18701 17.6269 3.33822C18.1063 3.51525 18.5427 3.79606 18.897 4.16328C19.2642 4.5219 19.545 4.95392 19.7222 5.43354C19.8734 5.82236 20.0548 6.40982 20.1024 7.48566C20.1542 8.65213 20.1672 9.00197 20.1672 11.9527C20.1672 14.9035 20.1542 15.2491 20.1024 16.4156Z" fill="#201F20"/>
<path d="M11.0987 6.26318C7.96233 6.26318 5.4176 8.80775 5.4176 11.9443C5.4176 15.0809 7.96233 17.6255 11.0987 17.6255C14.2353 17.6255 16.7799 15.0809 16.7799 11.9443C16.7799 8.80775 14.2353 6.26318 11.0987 6.26318ZM11.0987 15.6295C9.064 15.6295 7.41353 13.9792 7.41353 11.9443C7.41353 9.90941 9.064 8.25911 11.0987 8.25911C13.1336 8.25911 14.7839 9.90941 14.7839 11.9443C14.7839 13.9792 13.1336 15.6295 11.0987 15.6295Z" fill="#201F20"/>
<path d="M18.331 6.03869C18.331 6.77111 17.7371 7.36498 17.0045 7.36498C16.2721 7.36498 15.6782 6.77111 15.6782 6.03869C15.6782 5.3061 16.2721 4.7124 17.0045 4.7124C17.7371 4.7124 18.331 5.3061 18.331 6.03869Z" fill="#201F20"/>
</g>
<defs>
<clipPath id="clip0_8_63">
<rect width="22.1154" height="22.1154" fill="white" transform="translate(0 0.884277)"/>
</clipPath>
</defs>
</svg>
