<svg width="116" height="41" viewBox="0 0 116 41" fill="none" xmlns="http://www.w3.org/2000/svg">
<path d="M4.8 27.53V35.87H1.86V16.37H4.8V17.75C5.76 16.61 7.01 16.04 8.55 16.04C10.27 16.04 11.72 16.65 12.9 17.87C14.1 19.07 14.7 20.65 14.7 22.61C14.7 24.63 14.08 26.27 12.84 27.53C11.6 28.77 10.18 29.39 8.58 29.39C7.08 29.39 5.82 28.77 4.8 27.53ZM8.19 18.68C7.19 18.68 6.34 19.04 5.64 19.76C4.96 20.46 4.62 21.46 4.62 22.76C4.62 24.02 4.96 25 5.64 25.7C6.34 26.4 7.19 26.75 8.19 26.75C9.23 26.75 10.07 26.36 10.71 25.58C11.37 24.8 11.7 23.85 11.7 22.73C11.7 21.59 11.37 20.63 10.71 19.85C10.07 19.07 9.23 18.68 8.19 18.68ZM25.4782 18.26L23.2882 19.7C22.8482 18.98 22.2482 18.62 21.4882 18.62C21.1082 18.62 20.8082 18.73 20.5882 18.95C20.4082 19.13 20.3182 19.35 20.3182 19.61C20.3182 19.91 20.4582 20.15 20.7382 20.33C20.7982 20.37 20.8582 20.41 20.9182 20.45C20.9782 20.47 21.0882 20.52 21.2482 20.6C21.4082 20.68 21.5682 20.76 21.7282 20.84L23.2282 21.59C24.0682 22.01 24.6582 22.4 24.9982 22.76C25.6182 23.38 25.9282 24.16 25.9282 25.1C25.9282 26.22 25.5582 27.18 24.8182 27.98C23.9582 28.92 22.7782 29.39 21.2782 29.39C20.1582 29.39 19.2482 29.12 18.5482 28.58C17.7882 28.02 17.2482 27.25 16.9282 26.27L19.3282 25.13C19.5282 25.71 19.7582 26.11 20.0182 26.33C20.3382 26.65 20.7682 26.81 21.3082 26.81C21.8282 26.81 22.2282 26.67 22.5082 26.39C22.7882 26.11 22.9282 25.78 22.9282 25.4C22.9282 25.04 22.7982 24.72 22.5382 24.44C22.2582 24.16 21.8382 23.9 21.2782 23.66L20.1982 23.15C19.3582 22.75 18.7782 22.39 18.4582 22.07C17.8582 21.49 17.5582 20.78 17.5582 19.94C17.5582 18.88 17.9082 17.98 18.6082 17.24C19.3682 16.44 20.3982 16.04 21.6982 16.04C22.5982 16.04 23.3782 16.26 24.0382 16.7C24.6382 17.08 25.1182 17.6 25.4782 18.26ZM27.3558 35.87L32.0058 27.02L26.6058 16.37H30.1458L33.7458 23.75L37.4058 16.37H40.7058L30.6558 35.87H27.3558Z" fill="#272931"/>
<path d="M43.3884 28.85C43.0484 28.49 42.8784 28.06 42.8784 27.56C42.8784 27.06 43.0484 26.64 43.3884 26.3C43.7484 25.94 44.1784 25.76 44.6784 25.76C45.1784 25.76 45.5984 25.94 45.9384 26.3C46.2984 26.64 46.4784 27.06 46.4784 27.56C46.4784 28.06 46.2984 28.49 45.9384 28.85C45.5984 29.19 45.1784 29.36 44.6784 29.36C44.1784 29.36 43.7484 29.19 43.3884 28.85ZM53.257 27.53V35.87H50.317V16.37H53.257V17.75C54.217 16.61 55.467 16.04 57.007 16.04C58.727 16.04 60.177 16.65 61.357 17.87C62.557 19.07 63.157 20.65 63.157 22.61C63.157 24.63 62.537 26.27 61.297 27.53C60.057 28.77 58.637 29.39 57.037 29.39C55.537 29.39 54.277 28.77 53.257 27.53ZM56.647 18.68C55.647 18.68 54.797 19.04 54.097 19.76C53.417 20.46 53.077 21.46 53.077 22.76C53.077 24.02 53.417 25 54.097 25.7C54.797 26.4 55.647 26.75 56.647 26.75C57.687 26.75 58.527 26.36 59.167 25.58C59.827 24.8 60.157 23.85 60.157 22.73C60.157 21.59 59.827 20.63 59.167 19.85C58.527 19.07 57.687 18.68 56.647 18.68ZM66.2252 29V16.37H69.1652V17.51C69.5452 17.07 69.9552 16.72 70.3952 16.46C70.8752 16.18 71.4752 16.04 72.1952 16.04C73.0552 16.04 73.8252 16.24 74.5052 16.64L73.3052 19.31C72.8252 19.01 72.3252 18.86 71.8052 18.86C71.0252 18.86 70.4152 19.09 69.9752 19.55C69.4352 20.13 69.1652 21.1 69.1652 22.46V29H66.2252ZM76.8602 17.93C78.1602 16.67 79.7702 16.04 81.6902 16.04C83.6102 16.04 85.2102 16.67 86.4902 17.93C87.7902 19.17 88.4402 20.76 88.4402 22.7C88.4402 24.62 87.7902 26.22 86.4902 27.5C85.2102 28.76 83.6102 29.39 81.6902 29.39C79.7702 29.39 78.1602 28.76 76.8602 27.5C75.5802 26.22 74.9402 24.62 74.9402 22.7C74.9402 20.76 75.5802 19.17 76.8602 17.93ZM78.9602 25.67C79.6402 26.39 80.5502 26.75 81.6902 26.75C82.8302 26.75 83.7402 26.39 84.4202 25.67C85.1002 24.93 85.4402 23.95 85.4402 22.73C85.4402 21.39 85.0702 20.38 84.3302 19.7C83.6102 19.02 82.7302 18.68 81.6902 18.68C80.6502 18.68 79.7602 19.02 79.0202 19.7C78.3002 20.38 77.9402 21.39 77.9402 22.73C77.9402 23.95 78.2802 24.93 78.9602 25.67Z" fill="#FA8166"/>
<mask id="mask0_2_44" style="mask-type:alpha" maskUnits="userSpaceOnUse" x="76" y="1" width="40" height="40">
<circle cx="96" cy="21" r="20" fill="white"/>
</mask>
<g mask="url(#mask0_2_44)">
<circle cx="122" cy="21" r="20" fill="#FA8166"/>
</g>
</svg>
