<svg width="14" height="40" viewBox="0 0 14 40" fill="none" xmlns="http://www.w3.org/2000/svg">
<g clip-path="url(#clip0_608_66)">
<mask id="mask0_608_66" style="mask-type:alpha" maskUnits="userSpaceOnUse" x="-26" y="0" width="40" height="40">
<path d="M-6 40C5.0457 40 14 31.0457 14 20C14 8.9543 5.0457 0 -6 0C-17.0457 0 -26 8.9543 -26 20C-26 31.0457 -17.0457 40 -6 40Z" fill="white"/>
</mask>
<g mask="url(#mask0_608_66)">
<path d="M20 40C31.0457 40 40 31.0457 40 20C40 8.9543 31.0457 0 20 0C8.9543 0 0 8.9543 0 20C0 31.0457 8.9543 40 20 40Z" fill="#FA8166"/>
</g>
</g>
<defs>
<clipPath id="clip0_608_66">
<rect width="14" height="40" fill="white"/>
</clipPath>
</defs>
</svg>
