<svg width="30" height="30" viewBox="0 0 30 30" fill="none" xmlns="http://www.w3.org/2000/svg">
<path fill-rule="evenodd" clip-rule="evenodd" d="M15.63 2.19C15.27 2.19 14.88 2.19 14.52 2.19C12.6 2.37 11.1 3.18 9.96 4.32C8.91 5.37 8.01 6.93 7.89 8.76C7.74 10.74 7.89 12.84 7.89 15.03C7.89 17.07 7.74 19.23 7.89 21.24C8.16 24.87 11.04 27.57 14.55 27.81C18.18 28.05 20.82 25.83 21.78 23.22C21.99 22.65 22.02 22.11 22.17 21.36C22.17 17.13 22.17 12.9 22.17 8.7C21.6 4.92 19.41 2.76 15.63 2.19ZM20.49 22.65C19.62 24.96 17.4 26.4 15 26.4C12.27 26.4 9.66 24.45 9.18 21.57C8.91 20.04 9.12 17.79 9.12 16.14C9.12 14.25 9.12 12.39 9.12 10.65C9.12 8.76 9.27 7.32 10.08 6.12C11.01 4.74 12.57 3.69 14.97 3.66C17.94 3.63 20.31 5.76 20.79 8.31C20.94 9.12 20.85 16.41 20.91 19.14C20.91 20.43 20.85 21.75 20.49 22.65Z" fill="#323232"/>
<path fill-rule="evenodd" clip-rule="evenodd" d="M17.52 11.07C16.89 11.7 16.29 12.3 15.78 12.81C15.78 10.8 15.75 7.74004 15.75 6.54004C15.75 5.67004 14.28 5.70004 14.28 6.57004C14.28 7.89004 14.28 10.83 14.28 12.78C13.44 11.94 12.78 11.28 12.54 11.04C11.94 10.44 10.86 11.52 11.46 12.12C11.67 12.33 13.11 13.71 14.34 14.94C14.4 15.09 14.52 15.18 14.67 15.24C14.76 15.3 14.85 15.33 14.94 15.36C15.15 15.42 15.36 15.39 15.54 15.21C15.78 14.97 17.34 13.35 18.6 12.09C19.2 11.46 18.15 10.44 17.52 11.07Z" fill="#323232"/>
</svg>
