<svg width="93" height="88" viewBox="0 0 93 88" fill="none" xmlns="http://www.w3.org/2000/svg">
<path d="M47.0974 56.9772C46.8129 57.1418 46.491 57.2413 46.158 57.2574L35.428 57.7768C32.3825 57.9229 29.7627 57.625 27.416 56.8697C22.2814 55.2193 17.9726 51.7799 15.2862 47.1799L6.43871 32.0432C5.41724 30.2964 5.64623 28.0654 7.00224 26.4903L19.1508 12.4214C19.8678 11.5784 20.8711 10.9917 21.9677 10.7702L40.1507 7.04493C42.1845 6.62523 44.2384 7.52001 45.2563 9.26588L54.1103 24.4139C56.795 29.0058 57.6825 34.4494 56.6115 39.7421C56.1198 42.1701 55.095 44.6042 53.4822 47.1841L47.7981 56.2933C47.6226 56.5774 47.3805 56.8103 47.0974 56.9772Z" fill="url(#paint0_linear_10_13)"/>
<g filter="url(#filter0_f_10_13)">
<path d="M42.3524 47.9585C42.1595 48.0701 41.9444 48.1432 41.7251 48.1655L34.6596 48.8849C32.6542 49.0882 30.9449 49.0033 29.432 48.6274C26.1215 47.8063 23.4197 45.8565 21.8265 43.1339L16.579 34.1753C15.9731 33.1414 16.2064 31.7638 17.1554 30.7466L25.6559 21.6592C26.1581 21.1151 26.8387 20.7176 27.567 20.5408L39.646 17.5758C40.9971 17.2423 42.3127 17.7147 42.9162 18.7481L48.1676 27.7134C49.76 30.4311 50.1405 33.7385 49.2406 37.0265C48.8274 38.5349 48.0641 40.0669 46.9091 41.7103L42.8379 47.5126C42.7121 47.6935 42.5445 47.8455 42.3524 47.9585Z" fill="#1EA51F" fill-opacity="0.5"/>
</g>
<g filter="url(#filter1_b_10_13)">
<mask id="path-3-outside-1_10_13" maskUnits="userSpaceOnUse" x="21.8279" y="7.83211" width="72.3255" height="81.6211" fill="black">
<rect fill="white" x="21.8279" y="7.83211" width="72.3255" height="81.6211"/>
<path d="M52.9584 83.469C52.5266 83.4023 52.11 83.2363 51.7513 82.974L40.1907 74.5223C36.9106 72.1221 34.441 69.6156 32.6348 66.8608C28.6808 60.8357 27.0701 53.6365 28.1068 46.5866L31.5099 23.3817C31.9021 20.7034 33.9937 18.5682 36.7092 18.0617L61.0014 13.5687C62.4456 13.2903 63.9738 13.5193 65.2952 14.2073L87.2501 25.5617C89.7082 26.8285 91.0949 29.4834 90.6997 32.1577L87.294 55.3798C86.2624 62.4199 82.6589 68.8419 77.1495 73.4652C74.6217 75.5857 71.5361 77.2659 67.7192 78.6052L54.2535 83.3429C53.8354 83.4922 53.3908 83.5323 52.9584 83.469Z"/>
</mask>
<path d="M52.9584 83.469C52.5266 83.4023 52.11 83.2363 51.7513 82.974L40.1907 74.5223C36.9106 72.1221 34.441 69.6156 32.6348 66.8608C28.6808 60.8357 27.0701 53.6365 28.1068 46.5866L31.5099 23.3817C31.9021 20.7034 33.9937 18.5682 36.7092 18.0617L61.0014 13.5687C62.4456 13.2903 63.9738 13.5193 65.2952 14.2073L87.2501 25.5617C89.7082 26.8285 91.0949 29.4834 90.6997 32.1577L87.294 55.3798C86.2624 62.4199 82.6589 68.8419 77.1495 73.4652C74.6217 75.5857 71.5361 77.2659 67.7192 78.6052L54.2535 83.3429C53.8354 83.4922 53.3908 83.5323 52.9584 83.469Z" fill="#72DC60" fill-opacity="0.35"/>
<path d="M52.807 84.4575C53.3529 84.5418 53.8631 84.1676 53.9467 83.6217C54.0303 83.0757 53.6556 82.5648 53.1098 82.4806L52.807 84.4575ZM51.7513 82.974L52.3406 82.1668L52.3406 82.1667L51.7513 82.974ZM40.1907 74.5223L39.6011 75.3293L39.6014 75.3296L40.1907 74.5223ZM32.6348 66.8608L33.4706 66.313L33.4704 66.3126L32.6348 66.8608ZM28.1068 46.5866L29.096 46.7333L29.096 46.733L28.1068 46.5866ZM31.5099 23.3817L32.4991 23.528L32.4992 23.5278L31.5099 23.3817ZM36.7092 18.0617L36.5263 17.0782L36.5248 17.0785L36.7092 18.0617ZM61.0014 13.5687L61.1843 14.5523L61.1917 14.5508L61.0014 13.5687ZM65.2952 14.2073L64.8344 15.0943L64.8369 15.0956L65.2952 14.2073ZM87.2501 25.5617L86.7917 26.4501L86.793 26.4507L87.2501 25.5617ZM90.6997 32.1577L89.7107 32.0103L89.7105 32.0113L90.6997 32.1577ZM87.294 55.3798L86.3047 55.2334L86.3047 55.2336L87.294 55.3798ZM77.1495 73.4652L77.7925 74.2319L77.7926 74.2318L77.1495 73.4652ZM67.7192 78.6052L67.3873 77.6613L67.3865 77.6616L67.7192 78.6052ZM54.2535 83.3429L53.9208 82.3993L53.9164 82.4009L54.2535 83.3429ZM53.102 82.4794C52.5555 82.3994 52.0483 82.7777 51.969 83.3243C51.8897 83.8708 52.2684 84.3787 52.8149 84.4587L53.102 82.4794ZM53.1098 82.4806C52.8285 82.4371 52.5637 82.3299 52.3406 82.1668L51.1619 83.7813C51.6563 84.1428 52.2247 84.3676 52.807 84.4575L53.1098 82.4806ZM52.3406 82.1667L40.78 73.715L39.6014 75.3296L51.162 83.7813L52.3406 82.1667ZM40.7804 73.7153C37.5757 71.3703 35.1978 68.9472 33.4706 66.313L31.799 67.4087C33.6842 70.284 36.2455 72.8739 39.6011 75.3293L40.7804 73.7153ZM33.4704 66.3126C29.6492 60.4898 28.0955 53.5374 29.096 46.7333L27.1176 46.4399C26.0448 53.7356 27.7125 61.1817 31.7992 67.409L33.4704 66.3126ZM29.096 46.733L32.4991 23.528L30.5207 23.2353L27.1176 46.4403L29.096 46.733ZM32.4992 23.5278C32.8275 21.2858 34.584 19.4757 36.8935 19.045L36.5248 17.0785C33.4034 17.6606 30.9768 20.1211 30.5207 23.2355L32.4992 23.5278ZM36.8921 19.0453L61.1843 14.5522L60.8185 12.5852L36.5263 17.0782L36.8921 19.0453ZM61.1917 14.5508C62.4103 14.3159 63.7095 14.5086 64.8344 15.0943L65.756 13.3202C64.2382 12.5299 62.4808 12.2647 60.811 12.5866L61.1917 14.5508ZM64.8369 15.0956L86.7917 26.4501L87.7084 24.6733L65.7535 13.3189L64.8369 15.0956ZM86.793 26.4507C88.8815 27.527 90.0415 29.7716 89.7107 32.0103L91.6888 32.3051C92.1484 29.1952 90.535 26.13 87.7071 24.6727L86.793 26.4507ZM89.7105 32.0113L86.3047 55.2334L88.2832 55.5261L91.6889 32.304L89.7105 32.0113ZM86.3047 55.2336C85.3091 62.0282 81.8309 68.2306 76.5064 72.6986L77.7926 74.2318C83.487 69.4533 87.2157 62.8116 88.2832 55.526L86.3047 55.2336ZM76.5066 72.6985C74.0894 74.7262 71.1159 76.353 67.3873 77.6613L68.0511 79.5491C71.9563 78.1788 75.1541 76.4452 77.7925 74.2319L76.5066 72.6985ZM67.3865 77.6616L53.9208 82.3993L54.5863 84.2865L68.0519 79.5488L67.3865 77.6616ZM53.9164 82.4009C53.6567 82.4936 53.3774 82.5197 53.102 82.4794L52.8149 84.4587C53.4041 84.5449 54.014 84.4908 54.5907 84.2849L53.9164 82.4009Z" fill="url(#paint1_linear_10_13)" mask="url(#path-3-outside-1_10_13)"/>
</g>
<g filter="url(#filter2_bd_10_13)">
<path d="M54.3919 56.227C53.7173 56.1264 53.0806 55.7791 52.6377 55.1988L46.9403 47.7271C46.0615 46.5675 46.2996 44.9423 47.4754 44.093C48.6516 43.2403 50.3206 43.4875 51.2035 44.6442L55.3033 50.0178L68.8218 40.2331C70.0016 39.3809 71.6705 39.6281 72.5499 40.7843C73.4323 41.9444 73.1936 43.573 72.0184 44.4189L56.3658 55.7499C55.7757 56.1777 55.0664 56.3277 54.3919 56.227Z" fill="url(#paint2_linear_10_13)"/>
<path d="M47.5341 44.174L47.5339 44.1741C46.404 44.9903 46.1749 46.5514 47.0198 47.6665L47.5341 44.174ZM47.5341 44.174C48.6664 43.3532 50.2741 43.5912 51.124 44.7048L55.2239 50.0785L55.2831 50.156L55.362 50.0989L68.8804 40.3142L47.5341 44.174ZM52.7171 55.1381L47.02 47.6667L68.8805 40.3142C70.0165 39.4937 71.624 39.7321 72.4704 40.8448C73.3189 41.9604 73.0891 43.5249 71.9599 44.3377L71.9597 44.3378L56.3071 55.6689L56.3071 55.6689C55.7392 56.0806 55.0566 56.2251 54.4065 56.1281C53.7561 56.031 53.1433 55.6964 52.7171 55.1381Z" stroke="url(#paint3_linear_10_13)" stroke-opacity="0.5" stroke-width="0.2"/>
</g>
<defs>
<filter id="filter0_f_10_13" x="0.244843" y="1.46997" width="65.4731" height="63.5223" filterUnits="userSpaceOnUse" color-interpolation-filters="sRGB">
<feFlood flood-opacity="0" result="BackgroundImageFix"/>
<feBlend mode="normal" in="SourceGraphic" in2="BackgroundImageFix" result="shape"/>
<feGaussianBlur stdDeviation="8" result="effect1_foregroundBlur_10_13"/>
</filter>
<filter id="filter1_b_10_13" x="2.80019" y="-11.5471" width="112.966" height="120.045" filterUnits="userSpaceOnUse" color-interpolation-filters="sRGB">
<feFlood flood-opacity="0" result="BackgroundImageFix"/>
<feGaussianBlur in="BackgroundImage" stdDeviation="12"/>
<feComposite in2="SourceAlpha" operator="in" result="effect1_backgroundBlur_10_13"/>
<feBlend mode="normal" in="SourceGraphic" in2="effect1_backgroundBlur_10_13" result="shape"/>
</filter>
<filter id="filter2_bd_10_13" x="31.4102" y="24.726" width="56.6724" height="46.5311" filterUnits="userSpaceOnUse" color-interpolation-filters="sRGB">
<feFlood flood-opacity="0" result="BackgroundImageFix"/>
<feGaussianBlur in="BackgroundImage" stdDeviation="7.5"/>
<feComposite in2="SourceAlpha" operator="in" result="effect1_backgroundBlur_10_13"/>
<feColorMatrix in="SourceAlpha" type="matrix" values="0 0 0 0 0 0 0 0 0 0 0 0 0 0 0 0 0 0 127 0" result="hardAlpha"/>
<feOffset dx="5" dy="5"/>
<feGaussianBlur stdDeviation="5"/>
<feColorMatrix type="matrix" values="0 0 0 0 0.454902 0 0 0 0 0.870588 0 0 0 0 0.376471 0 0 0 0.5 0"/>
<feBlend mode="normal" in2="effect1_backgroundBlur_10_13" result="effect2_dropShadow_10_13"/>
<feBlend mode="normal" in="SourceGraphic" in2="effect2_dropShadow_10_13" result="shape"/>
</filter>
<linearGradient id="paint0_linear_10_13" x1="40.0497" y1="1.32584e-05" x2="26.2023" y2="51.5306" gradientUnits="userSpaceOnUse">
<stop stop-color="#9BF763"/>
<stop offset="1" stop-color="#26AB5B"/>
</linearGradient>
<linearGradient id="paint1_linear_10_13" x1="41.9068" y1="18.5707" x2="80.1021" y2="73.4664" gradientUnits="userSpaceOnUse">
<stop stop-color="white" stop-opacity="0.25"/>
<stop offset="1" stop-color="white" stop-opacity="0"/>
</linearGradient>
<linearGradient id="paint2_linear_10_13" x1="71.1226" y1="43.2375" x2="42.4974" y2="40.1586" gradientUnits="userSpaceOnUse">
<stop stop-color="white"/>
<stop offset="1" stop-color="white" stop-opacity="0.2"/>
</linearGradient>
<linearGradient id="paint3_linear_10_13" x1="49.7013" y1="42.8728" x2="71.3698" y2="46.3603" gradientUnits="userSpaceOnUse">
<stop stop-color="white"/>
<stop offset="1" stop-color="white" stop-opacity="0"/>
</linearGradient>
</defs>
</svg>
