<svg width="104" height="88" viewBox="0 0 104 88" fill="none" xmlns="http://www.w3.org/2000/svg">
<path d="M50.472 53.632C50.054 54.4931 50.0873 55.5062 50.5583 56.3401L57.2512 67.7979C57.8176 68.7694 57.7623 69.9814 57.1106 70.8993C56.4846 71.8333 55.3765 72.3216 54.2639 72.1619L41.1114 70.4275C40.6526 70.363 40.1859 70.4087 39.7446 70.5553L39.0684 70.8015C38.8466 70.9218 38.6443 71.0802 38.4766 71.2712L29.5334 81.0829C29.087 81.5561 28.5036 81.8787 27.8618 82.0023C26.2828 82.261 24.7842 81.2139 24.4851 79.6424L22.2312 66.568C22.0519 65.6194 21.423 64.8176 20.5448 64.4172L8.35118 58.9728C7.33113 58.5168 6.66895 57.5152 6.65224 56.4001C6.62645 55.2911 7.21699 54.2599 8.18842 53.7225L19.9342 47.409C20.8419 46.9683 21.4612 46.0932 21.5761 45.0911L22.9572 31.9074C22.996 31.6109 23.0795 31.3207 23.2107 31.0526L23.3716 30.7963C23.4416 30.624 23.5372 30.4677 23.6551 30.3259L23.8907 30.1272L24.2512 29.7982L25.3017 29.4156C26.2754 29.1712 27.306 29.4313 28.0433 30.1118L37.6457 39.2393C38.3423 39.9091 39.3248 40.1924 40.2706 40.0033L53.3279 37.2847C54.4305 37.0527 55.57 37.4567 56.2807 38.3276C56.9723 39.2083 57.0905 40.4079 56.5848 41.4082L50.472 53.632Z" fill="url(#paint0_linear_10_36)"/>
<g opacity="0.5" filter="url(#filter0_f_10_36)">
<path d="M38.9715 47.0017C33.2608 47.0017 28.6261 51.6333 28.6261 57.3379C28.6261 63.0444 33.2608 67.674 38.9715 67.674C44.6926 67.674 49.317 63.0444 49.317 57.3379C49.317 51.6333 44.6926 47.0017 38.9715 47.0017Z" fill="#FF3D22"/>
</g>
<g filter="url(#filter1_b_10_36)">
<path d="M80.9252 51.706C79.8716 52.3137 79.1839 53.4023 79.0843 54.6143L77.9482 71.4249C77.8507 72.8494 76.9281 74.0841 75.5883 74.5852C74.264 75.1214 72.7509 74.8458 71.6951 73.8858L59.1052 62.6984C58.6688 62.3039 58.1456 62.0197 57.5772 61.8596L56.6907 61.637C56.3717 61.6056 56.0461 61.6281 55.7335 61.7094L39.3336 65.6571C38.5267 65.8368 37.6834 65.7606 36.9205 65.4335C35.076 64.5813 34.2474 62.4135 35.0538 60.5485L42.0096 45.199C42.4977 44.0741 42.4085 42.7834 41.7708 41.7373L32.8351 27.3323C32.088 26.1266 32.1062 24.6023 32.8839 23.4181C33.6478 22.2339 35.0042 21.5702 36.4087 21.6969L53.2598 23.4221C54.5285 23.6051 55.8036 23.1261 56.6392 22.1544L67.4943 9.27797C67.7466 8.99384 68.0414 8.74817 68.3705 8.55976L68.7224 8.40489C68.9189 8.27353 69.1309 8.17734 69.356 8.11222L69.7454 8.07101L70.3591 7.98183L71.7363 8.32759C72.9343 8.76385 73.8321 9.77108 74.1219 11.0113L77.7066 27.4434C77.9612 28.6436 78.792 29.6409 79.9212 30.1155L95.587 36.5537C96.9117 37.0948 97.8215 38.3309 97.9474 39.7524C98.0463 41.1706 97.315 42.5159 96.0699 43.2075L80.9252 51.706Z" fill="#FFAC95" fill-opacity="0.4"/>
<path d="M78.4471 71.4584L78.4471 71.4588C78.3364 73.0775 77.2892 74.48 75.7696 75.0511C74.2681 75.6563 72.5559 75.3428 71.3608 74.2577C71.3601 74.2571 71.3593 74.2564 71.3586 74.2557L58.7729 63.0721L58.7698 63.0693C58.3942 62.7297 57.9422 62.4829 57.4481 62.3427L56.6064 62.1314C56.3546 62.1104 56.1007 62.1304 55.8593 62.1933L55.8504 62.1956L55.8503 62.1955L39.4505 66.1432L39.4421 66.1452L39.4421 66.1451C38.5336 66.3474 37.5833 66.2617 36.7233 65.8931L36.7105 65.8876L36.7106 65.8874C34.62 64.9214 33.6807 62.4644 34.5948 60.3503L34.5983 60.3423L34.5983 60.3423L41.5524 44.9966C41.9739 44.0222 41.8962 42.905 41.3447 41.999C41.3444 41.9985 41.3441 41.998 41.3438 41.9975L32.4101 27.5959L32.41 27.5957C31.5612 26.226 31.581 24.4928 32.4648 23.1455C33.3295 21.8064 34.8644 21.0556 36.4538 21.199L36.4598 21.1996L36.4598 21.1996L53.311 22.9248C53.3178 22.9255 53.3246 22.9263 53.3314 22.9273C54.4298 23.0857 55.5343 22.6713 56.2586 21.8303C56.2591 21.8297 56.2596 21.8291 56.2601 21.8286L67.112 8.95585L67.1203 8.94601L67.1204 8.94612C67.4058 8.62469 67.7423 8.3434 68.1221 8.12593C68.1374 8.11719 68.1531 8.10926 68.1692 8.10218L68.4831 7.96405C68.7137 7.81547 68.96 7.70639 69.2171 7.63198C69.2454 7.62381 69.2743 7.61814 69.3035 7.61505L69.6833 7.57486L70.2874 7.48708C70.352 7.4777 70.4178 7.48104 70.4811 7.49694L71.8583 7.84269C71.875 7.84688 71.8915 7.85193 71.9076 7.85782C73.2631 8.35145 74.2805 9.49181 74.6088 10.8975L74.6105 10.9046L74.6105 10.9046L78.1952 27.3367L78.1958 27.3395C78.416 28.3776 79.1348 29.2418 80.1132 29.6538C80.1138 29.6541 80.1145 29.6544 80.1151 29.6546L95.7763 36.0909L78.4471 71.4584ZM78.4471 71.4584L79.5826 54.6551C79.5827 54.6539 79.5828 54.6527 79.5829 54.6515C79.6701 53.6049 80.2641 52.6654 81.1725 52.1405C81.1733 52.14 81.1741 52.1395 81.1749 52.139L96.3126 43.6445C96.3128 43.6444 96.313 43.6443 96.3132 43.6442C97.7273 42.8584 98.5587 41.3296 98.4463 39.7174L98.4463 39.7174M78.4471 71.4584L98.4463 39.7174M98.4463 39.7174L98.4455 39.7081M98.4463 39.7174L98.4455 39.7081M98.4455 39.7081C98.3032 38.1009 97.2748 36.7034 95.7773 36.0913L98.4455 39.7081Z" stroke="url(#paint1_linear_10_36)" stroke-linecap="round" stroke-linejoin="round"/>
</g>
<defs>
<filter id="filter0_f_10_36" x="8.62607" y="27.0017" width="60.6909" height="60.6723" filterUnits="userSpaceOnUse" color-interpolation-filters="sRGB">
<feFlood flood-opacity="0" result="BackgroundImageFix"/>
<feBlend mode="normal" in="SourceGraphic" in2="BackgroundImageFix" result="shape"/>
<feGaussianBlur stdDeviation="10" result="effect1_foregroundBlur_10_36"/>
</filter>
<filter id="filter1_b_10_36" x="7.28729" y="-17.0181" width="115.669" height="116.874" filterUnits="userSpaceOnUse" color-interpolation-filters="sRGB">
<feFlood flood-opacity="0" result="BackgroundImageFix"/>
<feGaussianBlur in="BackgroundImage" stdDeviation="12"/>
<feComposite in2="SourceAlpha" operator="in" result="effect1_backgroundBlur_10_36"/>
<feBlend mode="normal" in="SourceGraphic" in2="effect1_backgroundBlur_10_36" result="shape"/>
</filter>
<linearGradient id="paint0_linear_10_36" x1="10.0883" y1="49.6185" x2="64.8454" y2="100.969" gradientUnits="userSpaceOnUse">
<stop stop-color="#FFA78F"/>
<stop offset="1" stop-color="#F23E2C"/>
</linearGradient>
<linearGradient id="paint1_linear_10_36" x1="47.162" y1="9.85013" x2="73.4629" y2="70.7328" gradientUnits="userSpaceOnUse">
<stop stop-color="white" stop-opacity="0.25"/>
<stop offset="1" stop-color="white" stop-opacity="0"/>
</linearGradient>
</defs>
</svg>
