<svg width="884" height="4" viewBox="0 0 884 4" fill="none" xmlns="http://www.w3.org/2000/svg">
<circle cx="2" cy="2" r="2" fill="#DDDDDD"/>
<circle cx="122" cy="2" r="2" fill="#DDDDDD"/>
<circle cx="42" cy="2" r="2" fill="#DDDDDD"/>
<circle cx="162" cy="2" r="2" fill="#DDDDDD"/>
<circle cx="218" cy="2" r="2" fill="#DDDDDD"/>
<circle cx="82" cy="2" r="2" fill="#DDDDDD"/>
<circle cx="202" cy="2" r="2" fill="#DDDDDD"/>
<circle cx="258" cy="2" r="2" fill="#DDDDDD"/>
<circle cx="10" cy="2" r="2" fill="#DDDDDD"/>
<circle cx="130" cy="2" r="2" fill="#DDDDDD"/>
<circle cx="50" cy="2" r="2" fill="#DDDDDD"/>
<circle cx="170" cy="2" r="2" fill="#DDDDDD"/>
<circle cx="226" cy="2" r="2" fill="#DDDDDD"/>
<circle cx="90" cy="2" r="2" fill="#DDDDDD"/>
<circle cx="26" cy="2" r="2" fill="#DDDDDD"/>
<circle cx="146" cy="2" r="2" fill="#DDDDDD"/>
<circle cx="66" cy="2" r="2" fill="#DDDDDD"/>
<circle cx="186" cy="2" r="2" fill="#DDDDDD"/>
<circle cx="242" cy="2" r="2" fill="#DDDDDD"/>
<circle cx="106" cy="2" r="2" fill="#DDDDDD"/>
<circle cx="18" cy="2" r="2" fill="#DDDDDD"/>
<circle cx="138" cy="2" r="2" fill="#DDDDDD"/>
<circle cx="58" cy="2" r="2" fill="#DDDDDD"/>
<circle cx="178" cy="2" r="2" fill="#DDDDDD"/>
<circle cx="234" cy="2" r="2" fill="#DDDDDD"/>
<circle cx="98" cy="2" r="2" fill="#DDDDDD"/>
<circle cx="34" cy="2" r="2" fill="#DDDDDD"/>
<circle cx="154" cy="2" r="2" fill="#DDDDDD"/>
<circle cx="210" cy="2" r="2" fill="#DDDDDD"/>
<circle cx="74" cy="2" r="2" fill="#DDDDDD"/>
<circle cx="194" cy="2" r="2" fill="#DDDDDD"/>
<circle cx="250" cy="2" r="2" fill="#DDDDDD"/>
<circle cx="114" cy="2" r="2" fill="#DDDDDD"/>
<circle cx="266" cy="2" r="2" fill="#DDDDDD"/>
<circle cx="386" cy="2" r="2" fill="#DDDDDD"/>
<circle cx="306" cy="2" r="2" fill="#DDDDDD"/>
<circle cx="426" cy="2" r="2" fill="#DDDDDD"/>
<circle cx="482" cy="2" r="2" fill="#DDDDDD"/>
<circle cx="346" cy="2" r="2" fill="#DDDDDD"/>
<circle cx="466" cy="2" r="2" fill="#DDDDDD"/>
<circle cx="522" cy="2" r="2" fill="#DDDDDD"/>
<circle cx="274" cy="2" r="2" fill="#DDDDDD"/>
<circle cx="394" cy="2" r="2" fill="#DDDDDD"/>
<circle cx="314" cy="2" r="2" fill="#DDDDDD"/>
<circle cx="434" cy="2" r="2" fill="#DDDDDD"/>
<circle cx="490" cy="2" r="2" fill="#DDDDDD"/>
<circle cx="354" cy="2" r="2" fill="#DDDDDD"/>
<circle cx="290" cy="2" r="2" fill="#DDDDDD"/>
<circle cx="410" cy="2" r="2" fill="#DDDDDD"/>
<circle cx="330" cy="2" r="2" fill="#DDDDDD"/>
<circle cx="450" cy="2" r="2" fill="#DDDDDD"/>
<circle cx="506" cy="2" r="2" fill="#DDDDDD"/>
<circle cx="370" cy="2" r="2" fill="#DDDDDD"/>
<circle cx="282" cy="2" r="2" fill="#DDDDDD"/>
<circle cx="402" cy="2" r="2" fill="#DDDDDD"/>
<circle cx="322" cy="2" r="2" fill="#DDDDDD"/>
<circle cx="442" cy="2" r="2" fill="#DDDDDD"/>
<circle cx="498" cy="2" r="2" fill="#DDDDDD"/>
<circle cx="362" cy="2" r="2" fill="#DDDDDD"/>
<circle cx="298" cy="2" r="2" fill="#DDDDDD"/>
<circle cx="418" cy="2" r="2" fill="#DDDDDD"/>
<circle cx="474" cy="2" r="2" fill="#DDDDDD"/>
<circle cx="338" cy="2" r="2" fill="#DDDDDD"/>
<circle cx="458" cy="2" r="2" fill="#DDDDDD"/>
<circle cx="514" cy="2" r="2" fill="#DDDDDD"/>
<circle cx="378" cy="2" r="2" fill="#DDDDDD"/>
<circle cx="530" cy="2" r="2" fill="#DDDDDD"/>
<circle cx="650" cy="2" r="2" fill="#DDDDDD"/>
<circle cx="570" cy="2" r="2" fill="#DDDDDD"/>
<circle cx="690" cy="2" r="2" fill="#DDDDDD"/>
<circle cx="746" cy="2" r="2" fill="#DDDDDD"/>
<circle cx="610" cy="2" r="2" fill="#DDDDDD"/>
<circle cx="730" cy="2" r="2" fill="#DDDDDD"/>
<circle cx="786" cy="2" r="2" fill="#DDDDDD"/>
<circle cx="538" cy="2" r="2" fill="#DDDDDD"/>
<circle cx="658" cy="2" r="2" fill="#DDDDDD"/>
<circle cx="578" cy="2" r="2" fill="#DDDDDD"/>
<circle cx="698" cy="2" r="2" fill="#DDDDDD"/>
<circle cx="754" cy="2" r="2" fill="#DDDDDD"/>
<circle cx="618" cy="2" r="2" fill="#DDDDDD"/>
<circle cx="554" cy="2" r="2" fill="#DDDDDD"/>
<circle cx="674" cy="2" r="2" fill="#DDDDDD"/>
<circle cx="594" cy="2" r="2" fill="#DDDDDD"/>
<circle cx="714" cy="2" r="2" fill="#DDDDDD"/>
<circle cx="770" cy="2" r="2" fill="#DDDDDD"/>
<circle cx="634" cy="2" r="2" fill="#DDDDDD"/>
<circle cx="546" cy="2" r="2" fill="#DDDDDD"/>
<circle cx="666" cy="2" r="2" fill="#DDDDDD"/>
<circle cx="586" cy="2" r="2" fill="#DDDDDD"/>
<circle cx="706" cy="2" r="2" fill="#DDDDDD"/>
<circle cx="762" cy="2" r="2" fill="#DDDDDD"/>
<circle cx="626" cy="2" r="2" fill="#DDDDDD"/>
<circle cx="562" cy="2" r="2" fill="#DDDDDD"/>
<circle cx="682" cy="2" r="2" fill="#DDDDDD"/>
<circle cx="738" cy="2" r="2" fill="#DDDDDD"/>
<circle cx="602" cy="2" r="2" fill="#DDDDDD"/>
<circle cx="722" cy="2" r="2" fill="#DDDDDD"/>
<circle cx="778" cy="2" r="2" fill="#DDDDDD"/>
<circle cx="642" cy="2" r="2" fill="#DDDDDD"/>
<circle cx="794" cy="2" r="2" fill="#DDDDDD"/>
<circle cx="834" cy="2" r="2" fill="#DDDDDD"/>
<circle cx="874" cy="2" r="2" fill="#DDDDDD"/>
<circle cx="802" cy="2" r="2" fill="#DDDDDD"/>
<circle cx="842" cy="2" r="2" fill="#DDDDDD"/>
<circle cx="882" cy="2" r="2" fill="#DDDDDD"/>
<circle cx="818" cy="2" r="2" fill="#DDDDDD"/>
<circle cx="858" cy="2" r="2" fill="#DDDDDD"/>
<circle cx="810" cy="2" r="2" fill="#DDDDDD"/>
<circle cx="850" cy="2" r="2" fill="#DDDDDD"/>
<circle cx="826" cy="2" r="2" fill="#DDDDDD"/>
<circle cx="866" cy="2" r="2" fill="#DDDDDD"/>
</svg>
