<svg width="27" height="23" viewBox="0 0 27 23" fill="none" xmlns="http://www.w3.org/2000/svg">
<path d="M26.6538 3.27142C25.6669 3.70433 24.6153 3.99127 23.519 4.1306C24.6468 3.45719 25.5077 2.39897 25.9124 1.12346C24.8608 1.75043 23.6998 2.19329 22.4624 2.44043C21.4639 1.37724 20.0408 0.71875 18.4883 0.71875C15.4761 0.71875 13.0512 3.16361 13.0512 6.16079C13.0512 6.59204 13.0877 7.00671 13.1773 7.40147C8.65411 7.18087 4.65177 5.013 1.9631 1.71063C1.4937 2.52502 1.21836 3.45719 1.21836 4.46067C1.21836 6.3449 2.18867 8.01517 3.63502 8.98216C2.76091 8.96558 1.90339 8.7118 1.17689 8.31207C1.17689 8.32865 1.17689 8.35022 1.17689 8.37178C1.17689 11.0157 3.06278 13.2117 5.53584 13.7176C5.09298 13.8387 4.61031 13.8968 4.1094 13.8968C3.76108 13.8968 3.40944 13.8769 3.07937 13.8039C3.7843 15.9585 5.78464 17.5425 8.16315 17.5939C6.31209 19.0419 3.96177 19.9144 1.4174 19.9144C0.971222 19.9144 0.543289 19.8944 0.115356 19.8397C2.52538 21.3939 5.38158 22.2812 8.4617 22.2812C18.4733 22.2812 23.9469 13.988 23.9469 6.79938C23.9469 6.55887 23.9386 6.32666 23.927 6.09611C25.0068 5.32981 25.9141 4.37276 26.6538 3.27142Z" fill="#201F20"/>
</svg>
